<?xml version="1.0" encoding="utf-8"?>
<!-- Generator: Adobe Illustrator 27.2.0, SVG Export Plug-In . SVG Version: 6.00 Build 0)  -->
<svg version="1.1" id="Layer_2" xmlns="http://www.w3.org/2000/svg" xmlns:xlink="http://www.w3.org/1999/xlink" x="0px" y="0px"
	 viewBox="0 0 400 346" style="enable-background:new 0 0 400 346;" xml:space="preserve">
<style type="text/css">
	.st0{fill:#E8C45F;}
</style>
<g>
	<path class="st0" d="M85.31,299.75c10.39-8.5,40.84-18.38,60.58-27.23c11.29-5.06,12.97-12.85,12.36-18.56
		c-0.38-3.51-1.79-6.82-3.92-9.63l-14.57-20.81c-24.07-35.18-23.08-72.3-22.56-79.81c0.05-0.78,0.1-1.56,0.14-2.34
		c0.49-9.53,8.11-78.26,82.99-78.47c-0.11,0-0.23,0-0.34,0h0.68c-0.12,0-0.23,0-0.34,0c74.89,0.21,82.51,68.94,82.99,78.47
		c0.04,0.78,0.08,1.56,0.14,2.34c0.52,7.51,1.51,44.64-22.56,79.81l-14.57,20.81c-2.13,2.81-3.54,6.13-3.92,9.63
		c-0.61,5.71,1.07,13.5,12.36,18.56c19.74,8.85,50.19,18.72,60.58,27.23c6.51,5.33,26.41,20.31,30.14,31.12
		c29.96-33.56,48.13-77.55,48.13-125.73c0-105.25-86.69-190.58-193.64-190.58S6.36,99.89,6.36,205.15
		c0,48.45,18.38,92.66,48.63,126.28C58.21,320.59,78.69,305.17,85.31,299.75z"/>
</g>
</svg>
