<?xml version="1.0" encoding="utf-8"?>
<!-- Generator: Adobe Illustrator 27.2.0, SVG Export Plug-In . SVG Version: 6.00 Build 0)  -->
<svg version="1.1" id="Layer_1" xmlns="http://www.w3.org/2000/svg" xmlns:xlink="http://www.w3.org/1999/xlink" x="0px" y="0px"
	 viewBox="0 0 252 144" style="enable-background:new 0 0 252 144;" xml:space="preserve">
<style type="text/css">
	.st0{fill:#1B307D;}
	.st1{fill:#E8C45F;}
	.st2{fill:#00444D;}
	.st3{fill:#FFFFFF;}
	.st4{fill:#F9BE03;}
	.st5{fill:#83BAB6;}
	.st6{fill:#639691;}
	.st7{fill:#C2C2C2;}
	.st8{fill:#058BE8;}
</style>
<path class="st0" d="M26.92,69.04V83.1c0,0.65,0.53,1.17,1.17,1.17h35.12c1.11,0,1.6-1.4,0.73-2.09L46.27,68.12
	c-0.21-0.17-0.47-0.26-0.73-0.26H28.09C27.44,67.87,26.92,68.39,26.92,69.04z"/>
<path class="st0" d="M46.27,65.27l17.68-14.06c0.87-0.69,0.38-2.09-0.73-2.09H28.09c-0.65,0-1.17,0.53-1.17,1.17v14.06
	c0,0.65,0.53,1.17,1.17,1.17h17.44C45.8,65.52,46.06,65.43,46.27,65.27z"/>
<path class="st0" d="M209.63,64.35V50.29c0-0.65-0.53-1.17-1.17-1.17H173.3c-0.65,0-1.17,0.53-1.17,1.17v14.06
	c0,0.65,0.53,1.17,1.17,1.17h35.15C209.1,65.52,209.63,65,209.63,64.35z"/>
<path class="st0" d="M70.08,49.37l-20.62,16.4c-0.59,0.47-0.59,1.37,0,1.84l20.62,16.4c0.21,0.17,0.47,0.26,0.73,0.26h15.34
	c0.65,0,1.17-0.53,1.17-1.17V50.29c0-0.65-0.53-1.17-1.17-1.17H70.81C70.55,49.12,70.29,49.21,70.08,49.37z"/>
<path class="st0" d="M172.13,69.04V83.1c0,0.65,0.53,1.17,1.17,1.17h35.15c0.65,0,1.17-0.53,1.17-1.17V69.04
	c0-0.65-0.53-1.17-1.17-1.17H173.3C172.65,67.87,172.13,68.39,172.13,69.04z"/>
<path class="st0" d="M111.36,74.9L111.36,74.9c0.6,0,1.11,0.46,1.16,1.06c0.34,3.98,2.67,5.97,6.99,5.97l23.87,0
	c3.43,0,6.35-2.63,6.57-6.05c0.34-5.34-1.99-8.01-7-8.01l-24.05,0c-4.56,0-8.42-3.5-8.71-8.05c-0.46-7.13,2.65-10.7,9.33-10.7H90.65
	c-0.65,0-1.17,0.53-1.17,1.17V83.1c0,0.65,0.53,1.17,1.17,1.17h28.86c-5.81,0-8.92-2.7-9.33-8.1
	C110.13,75.49,110.67,74.9,111.36,74.9z"/>
<path class="st0" d="M142.95,49.12c5.81,0,8.92,2.7,9.33,8.1c0.05,0.68-0.49,1.28-1.18,1.28l0,0c-0.6,0-1.11-0.46-1.16-1.06
	c-0.34-3.98-2.67-5.97-6.99-5.97l-23.87,0c-3.43,0-6.35,2.63-6.57,6.05c-0.34,5.34,1.99,8.01,7,8.01l24.05,0
	c4.56,0,8.42,3.5,8.71,8.05c0.46,7.13-2.65,10.7-9.33,10.7h25.66c0.65,0,1.17-0.53,1.17-1.17V50.29c0-0.65-0.53-1.17-1.17-1.17
	H142.95z"/>
<path class="st1" d="M135.88,46.13h0.94c0.34,0,0.61,0.41,0.61,0.93v49.67c0,0.51-0.27,0.93-0.61,0.93h-0.94
	c-0.34,0-0.61-0.41-0.61-0.93V47.06C135.27,46.55,135.54,46.13,135.88,46.13z"/>
<path class="st1" d="M125.27,46.13h0.94c0.34,0,0.61,0.41,0.61,0.93v49.67c0,0.51-0.27,0.93-0.61,0.93h-0.94
	c-0.34,0-0.61-0.41-0.61-0.93V47.06C124.66,46.55,124.94,46.13,125.27,46.13z"/>
<rect x="-303.32" y="172.6" class="st2" width="252" height="144"/>
<path class="st3" d="M-268.14,188.52L-268.14,188.52c0.2,0,0.37,0.15,0.38,0.35c0.11,1.31,0.88,1.97,2.31,1.97l7.87,0
	c1.13,0,2.1-0.87,2.17-2c0.11-1.76-0.66-2.64-2.31-2.64l-7.94,0c-1.5,0-2.78-1.16-2.88-2.66c-0.15-2.35,0.88-3.53,3.08-3.53h-9.52
	c-0.21,0-0.39,0.17-0.39,0.39v10.82c0,0.21,0.17,0.39,0.39,0.39h9.52c-1.92,0-2.94-0.89-3.08-2.67
	C-268.54,188.71-268.36,188.52-268.14,188.52z"/>
<path class="st3" d="M-257.71,180.01c1.92,0,2.94,0.89,3.08,2.67c0.02,0.23-0.16,0.42-0.39,0.42l0,0c-0.2,0-0.37-0.15-0.38-0.35
	c-0.11-1.31-0.88-1.97-2.31-1.97l-7.87,0c-1.13,0-2.1,0.87-2.17,2c-0.11,1.76,0.66,2.64,2.31,2.64l7.94,0c1.5,0,2.78,1.16,2.88,2.66
	c0.15,2.35-0.88,3.53-3.08,3.53h8.47c0.21,0,0.39-0.17,0.39-0.39V180.4c0-0.21-0.17-0.39-0.39-0.39H-257.71z"/>
<g>
	<path class="st3" d="M-296,186.58v4.64c0,0.21,0.17,0.39,0.39,0.39h11.59c0.37,0,0.53-0.46,0.24-0.69l-5.83-4.64
		c-0.07-0.05-0.15-0.08-0.24-0.08h-5.76C-295.82,186.2-296,186.37-296,186.58z"/>
	<path class="st3" d="M-289.61,185.34l5.83-4.64c0.29-0.23,0.13-0.69-0.24-0.69h-11.59c-0.21,0-0.39,0.17-0.39,0.39v4.64
		c0,0.21,0.17,0.39,0.39,0.39h5.76C-289.76,185.42-289.68,185.39-289.61,185.34z"/>
	<path class="st3" d="M-235.71,185.04v-4.64c0-0.21-0.17-0.39-0.39-0.39h-11.6c-0.21,0-0.39,0.17-0.39,0.39v4.64
		c0,0.21,0.17,0.39,0.39,0.39h11.6C-235.89,185.42-235.71,185.25-235.71,185.04z"/>
	<path class="st3" d="M-281.75,180.09l-6.8,5.41c-0.2,0.16-0.2,0.45,0,0.61l6.8,5.41c0.07,0.05,0.15,0.08,0.24,0.08h5.06
		c0.21,0,0.39-0.17,0.39-0.39V180.4c0-0.21-0.17-0.39-0.39-0.39h-5.06C-281.6,180.01-281.69,180.04-281.75,180.09z"/>
	<path class="st3" d="M-248.09,186.58v4.64c0,0.21,0.17,0.39,0.39,0.39h11.6c0.21,0,0.39-0.17,0.39-0.39v-4.64
		c0-0.21-0.17-0.39-0.39-0.39h-11.6C-247.91,186.2-248.09,186.37-248.09,186.58z"/>
	<path class="st3" d="M-257.96,193.15h0.7v0.29c0.16-0.13,0.3-0.23,0.43-0.28c0.13-0.05,0.26-0.08,0.4-0.08
		c0.28,0,0.51,0.1,0.71,0.29c0.16,0.16,0.24,0.41,0.24,0.73v1.85h-0.7v-1.23c0-0.33-0.02-0.56-0.05-0.67
		c-0.03-0.11-0.08-0.19-0.16-0.25c-0.07-0.06-0.17-0.09-0.28-0.09c-0.14,0-0.26,0.05-0.37,0.14c-0.1,0.1-0.17,0.23-0.21,0.4
		c-0.02,0.09-0.03,0.28-0.03,0.57v1.13h-0.7V193.15z"/>
	<path class="st3" d="M-252.35,193.55l-0.44,0.44c-0.18-0.18-0.34-0.26-0.48-0.26c-0.08,0-0.14,0.02-0.19,0.05s-0.07,0.08-0.07,0.13
		c0,0.04,0.01,0.07,0.04,0.1c0.03,0.03,0.1,0.08,0.21,0.13l0.26,0.13c0.27,0.13,0.46,0.27,0.56,0.41c0.1,0.14,0.15,0.3,0.15,0.49
		c0,0.25-0.09,0.46-0.27,0.62s-0.43,0.25-0.74,0.25c-0.41,0-0.74-0.16-0.98-0.48l0.43-0.47c0.08,0.1,0.18,0.17,0.29,0.23
		c0.11,0.06,0.21,0.09,0.3,0.09c0.09,0,0.17-0.02,0.22-0.07c0.06-0.04,0.09-0.1,0.09-0.15c0-0.11-0.1-0.21-0.31-0.32l-0.24-0.12
		c-0.45-0.23-0.68-0.51-0.68-0.86c0-0.22,0.09-0.41,0.26-0.57c0.17-0.16,0.39-0.24,0.66-0.24c0.18,0,0.35,0.04,0.51,0.12
		S-252.46,193.4-252.35,193.55z"/>
	<path class="st3" d="M-250.93,192.12h0.7v1.03h0.42v0.61h-0.42v2.2h-0.7v-2.2h-0.36v-0.61h0.36V192.12z"/>
	<path class="st3" d="M-248.44,192c0.12,0,0.23,0.04,0.32,0.13s0.13,0.2,0.13,0.32c0,0.13-0.04,0.23-0.13,0.32
		c-0.09,0.09-0.19,0.13-0.31,0.13c-0.13,0-0.23-0.05-0.32-0.14c-0.09-0.09-0.13-0.2-0.13-0.33c0-0.12,0.04-0.23,0.13-0.32
		C-248.66,192.04-248.56,192-248.44,192z M-248.79,193.15h0.7v2.8h-0.7V193.15z"/>
	<path class="st3" d="M-246.63,192.12h0.7v1.03h0.42v0.61h-0.42v2.2h-0.7v-2.2h-0.36v-0.61h0.36V192.12z"/>
	<path class="st3" d="M-244.41,193.15h0.71v1.35c0,0.26,0.02,0.45,0.05,0.55c0.04,0.1,0.09,0.18,0.17,0.24
		c0.08,0.06,0.18,0.09,0.3,0.09s0.22-0.03,0.3-0.08c0.08-0.06,0.14-0.14,0.18-0.25c0.03-0.08,0.04-0.25,0.04-0.52v-1.37h0.7v1.19
		c0,0.49-0.04,0.82-0.12,1.01c-0.09,0.22-0.23,0.39-0.42,0.51c-0.18,0.12-0.42,0.18-0.7,0.18c-0.31,0-0.56-0.07-0.75-0.21
		c-0.19-0.14-0.32-0.33-0.4-0.57c-0.06-0.17-0.08-0.48-0.08-0.93V193.15z"/>
	<path class="st3" d="M-240.43,192.12h0.7v1.03h0.42v0.61h-0.42v2.2h-0.7v-2.2h-0.36v-0.61h0.36V192.12z"/>
	<path class="st3" d="M-237.93,192c0.12,0,0.23,0.04,0.32,0.13c0.09,0.09,0.13,0.2,0.13,0.32c0,0.13-0.04,0.23-0.13,0.32
		s-0.19,0.13-0.31,0.13c-0.13,0-0.23-0.05-0.32-0.14c-0.09-0.09-0.13-0.2-0.13-0.33c0-0.12,0.04-0.23,0.13-0.32
		C-238.16,192.04-238.06,192-237.93,192z M-238.28,193.15h0.7v2.8h-0.7V193.15z"/>
	<path class="st3" d="M-235.23,193.08c0.26,0,0.51,0.07,0.75,0.2c0.23,0.13,0.41,0.31,0.55,0.54c0.13,0.23,0.2,0.47,0.2,0.73
		c0,0.26-0.07,0.51-0.2,0.74c-0.13,0.23-0.31,0.41-0.54,0.54c-0.23,0.13-0.48,0.19-0.75,0.19c-0.4,0-0.75-0.14-1.03-0.43
		c-0.28-0.29-0.43-0.63-0.43-1.04c0-0.44,0.16-0.8,0.48-1.1C-235.92,193.21-235.59,193.08-235.23,193.08z M-235.22,193.74
		c-0.22,0-0.4,0.08-0.55,0.23c-0.15,0.15-0.22,0.35-0.22,0.58c0,0.24,0.07,0.44,0.22,0.59c0.14,0.15,0.33,0.23,0.55,0.23
		c0.22,0,0.4-0.08,0.55-0.23c0.15-0.15,0.22-0.35,0.22-0.59c0-0.24-0.07-0.44-0.22-0.59C-234.81,193.82-234.99,193.74-235.22,193.74
		z"/>
	<path class="st3" d="M-233.1,193.15h0.7v0.29c0.16-0.13,0.3-0.23,0.43-0.28s0.26-0.08,0.4-0.08c0.28,0,0.51,0.1,0.71,0.29
		c0.16,0.16,0.24,0.41,0.24,0.73v1.85h-0.7v-1.23c0-0.33-0.02-0.56-0.05-0.67c-0.03-0.11-0.08-0.19-0.16-0.25
		c-0.07-0.06-0.17-0.09-0.28-0.09c-0.14,0-0.26,0.05-0.37,0.14c-0.1,0.1-0.17,0.23-0.21,0.4c-0.02,0.09-0.03,0.28-0.03,0.57v1.13
		h-0.7V193.15z"/>
	<path class="st3" d="M-290.72,192.21h1.79c0,0,0,0,0.56,0v0.7c-0.56,0-0.56,0-0.56,0h-1.11c0,0,0,0,0,0v0.69c0,0,0,0,0,0h1.11
		c0,0,0,0,0.35-0.01v0.69c-0.35,0.01-0.35,0.01-0.35,0.01h-1.11c0,0,0,0,0,0V196c0,0,0,0,0,0h-0.68c0,0,0,0,0,0L-290.72,192.21
		C-290.72,192.21-290.72,192.21-290.72,192.21z"/>
	<path class="st3" d="M-286.89,192.06c0.12,0,0.22,0.04,0.3,0.13c0.08,0.09,0.13,0.2,0.13,0.32c0,0.13-0.04,0.23-0.12,0.32
		c-0.08,0.09-0.18,0.13-0.3,0.13c-0.12,0-0.22-0.05-0.3-0.14c-0.08-0.09-0.13-0.2-0.13-0.33c0-0.12,0.04-0.23,0.12-0.32
		C-287.11,192.11-287.01,192.06-286.89,192.06z M-287.22,193.22h0.67c0,0,0,0,0,0v2.8c0,0,0,0,0,0h-0.67c0,0,0,0,0,0L-287.22,193.22
		C-287.23,193.22-287.23,193.22-287.22,193.22z"/>
	<path class="st3" d="M-285.27,193.22C-285.27,193.22-285.27,193.22-285.27,193.22l0.67,0v0.29c0.15-0.13,0.29-0.23,0.41-0.28
		c0.12-0.05,0.25-0.08,0.38-0.08c0.26,0,0.49,0.1,0.67,0.29c0.16,0.16,0.23,0.41,0.23,0.73v1.85c0,0,0,0,0,0h-0.66c0,0,0,0,0,0
		v-1.23c0-0.33-0.01-0.56-0.04-0.67c-0.03-0.11-0.08-0.19-0.15-0.25c-0.07-0.06-0.16-0.09-0.26-0.09c-0.14,0-0.25,0.05-0.35,0.14
		s-0.16,0.23-0.2,0.4c-0.02,0.09-0.03,0.28-0.03,0.57v1.12c0,0,0,0,0,0h-0.67c0,0,0,0,0,0V193.22z"/>
	<path class="st3" d="M-279.61,193.22h0.67c0,0,0,0,0,0v2.8c0,0,0,0,0,0h-0.67v-0.3c-0.13,0.13-0.26,0.22-0.39,0.28
		s-0.27,0.09-0.43,0.09c-0.34,0-0.64-0.14-0.9-0.42c-0.25-0.28-0.38-0.63-0.38-1.05c0-0.43,0.12-0.79,0.37-1.06
		c0.24-0.28,0.54-0.42,0.89-0.42c0.16,0,0.31,0.03,0.45,0.1c0.14,0.06,0.27,0.16,0.39,0.29V193.22z M-280.31,193.8
		c-0.21,0-0.38,0.08-0.52,0.23c-0.14,0.15-0.21,0.35-0.21,0.59c0,0.24,0.07,0.44,0.21,0.6c0.14,0.16,0.31,0.23,0.52,0.23
		c0.21,0,0.38-0.08,0.52-0.23c0.14-0.15,0.21-0.36,0.21-0.6c0-0.24-0.07-0.44-0.21-0.59C-279.92,193.87-280.1,193.8-280.31,193.8z"
		/>
	<path class="st3" d="M-277.58,193.22C-277.58,193.22-277.58,193.22-277.58,193.22l0.67,0v0.29c0.15-0.13,0.29-0.23,0.41-0.28
		c0.12-0.05,0.25-0.08,0.38-0.08c0.26,0,0.49,0.1,0.67,0.29c0.16,0.16,0.23,0.41,0.23,0.73v1.85c0,0,0,0,0,0h-0.66c0,0,0,0,0,0
		v-1.23c0-0.33-0.01-0.56-0.04-0.67c-0.03-0.11-0.08-0.19-0.15-0.25c-0.07-0.06-0.16-0.09-0.26-0.09c-0.14,0-0.25,0.05-0.35,0.14
		c-0.1,0.1-0.16,0.23-0.2,0.4c-0.02,0.09-0.03,0.28-0.03,0.57v1.12c0,0,0,0,0,0h-0.67c0,0,0,0,0,0V193.22z"/>
	<path class="st3" d="M-271.28,193.79l-0.56,0.32c0,0,0,0,0,0c-0.1-0.11-0.21-0.19-0.31-0.24c-0.1-0.04-0.22-0.07-0.36-0.07
		c-0.25,0-0.45,0.08-0.61,0.24c-0.15,0.16-0.23,0.36-0.23,0.6c0,0.24,0.07,0.43,0.22,0.58c0.15,0.15,0.34,0.23,0.59,0.23
		c0.3,0,0.53-0.11,0.7-0.32c0,0,0,0,0,0l0.53,0.38c0,0,0,0,0,0c-0.29,0.39-0.69,0.59-1.21,0.59c-0.62,0-1.07-0.26-1.33-0.77
		c-0.12-0.22-0.18-0.48-0.17-0.73c0.01-0.26,0.07-0.5,0.19-0.72c0.13-0.23,0.31-0.41,0.54-0.54c0.23-0.13,0.49-0.2,0.78-0.2
		c0.27,0,0.5,0.06,0.71,0.17C-271.58,193.42-271.41,193.58-271.28,193.79C-271.28,193.79-271.28,193.79-271.28,193.79z"/>
	<path class="st3" d="M-269.73,192.06c0.12,0,0.22,0.04,0.3,0.13c0.08,0.09,0.13,0.2,0.13,0.32c0,0.13-0.04,0.23-0.12,0.32
		c-0.08,0.09-0.18,0.13-0.3,0.13c-0.12,0-0.22-0.05-0.3-0.14c-0.08-0.09-0.13-0.2-0.13-0.33c0-0.12,0.04-0.23,0.12-0.32
		C-269.95,192.11-269.85,192.06-269.73,192.06z M-270.07,193.22h0.67c0,0,0,0,0,0v2.8c0,0,0,0,0,0h-0.67c0,0,0,0,0,0L-270.07,193.22
		C-270.07,193.22-270.07,193.22-270.07,193.22z"/>
	<path class="st3" d="M-266.14,193.22h0.67c0,0,0,0,0,0v2.8c0,0,0,0,0,0h-0.67v-0.3c-0.13,0.13-0.26,0.22-0.39,0.28
		s-0.27,0.09-0.43,0.09c-0.34,0-0.64-0.14-0.9-0.42c-0.25-0.28-0.38-0.63-0.38-1.05c0-0.43,0.12-0.79,0.37-1.06
		c0.24-0.28,0.54-0.42,0.89-0.42c0.16,0,0.31,0.03,0.45,0.1c0.14,0.06,0.27,0.16,0.39,0.29V193.22z M-266.85,193.8
		c-0.21,0-0.38,0.08-0.52,0.23c-0.14,0.15-0.21,0.35-0.21,0.59c0,0.24,0.07,0.44,0.21,0.6c0.14,0.16,0.31,0.23,0.52,0.23
		c0.21,0,0.38-0.08,0.52-0.23c0.14-0.15,0.21-0.36,0.21-0.6c0-0.24-0.07-0.44-0.21-0.59C-266.46,193.87-266.64,193.8-266.85,193.8z"
		/>
</g>
<g>
	<g>
		<path class="st3" d="M-250.07,278.25h1.94l3.87,10.06h-1.99l-0.79-2.07h-4.1l-0.82,2.07h-1.99L-250.07,278.25z M-249.09,280.91
			l-1.35,3.45h2.69L-249.09,280.91z"/>
		<path class="st3" d="M-243.43,280.86h1.6v0.94c0.17-0.37,0.4-0.65,0.69-0.84s0.6-0.29,0.94-0.29c0.24,0,0.49,0.06,0.76,0.19
			l-0.58,1.61c-0.22-0.11-0.4-0.16-0.54-0.16c-0.29,0-0.53,0.18-0.73,0.53s-0.3,1.05-0.3,2.09l0.01,0.36v3.01h-1.85V280.86z"/>
		<path class="st3" d="M-238.52,280.86h1.87v0.85c0.32-0.35,0.67-0.61,1.06-0.79c0.39-0.17,0.81-0.26,1.28-0.26
			c0.46,0,0.88,0.11,1.26,0.34c0.37,0.23,0.68,0.56,0.9,1c0.3-0.44,0.66-0.77,1.09-1c0.43-0.23,0.9-0.34,1.41-0.34
			c0.53,0,0.99,0.12,1.4,0.37s0.69,0.57,0.87,0.96c0.18,0.4,0.26,1.04,0.26,1.93v4.36h-1.88v-3.77c0-0.84-0.1-1.41-0.31-1.71
			c-0.21-0.3-0.52-0.45-0.94-0.45c-0.32,0-0.6,0.09-0.86,0.27c-0.25,0.18-0.44,0.43-0.56,0.75s-0.18,0.84-0.18,1.55v3.36h-1.88v-3.6
			c0-0.67-0.05-1.15-0.15-1.45c-0.1-0.3-0.25-0.52-0.44-0.67c-0.2-0.15-0.43-0.22-0.71-0.22c-0.31,0-0.59,0.09-0.85,0.28
			c-0.25,0.18-0.44,0.44-0.57,0.78c-0.13,0.33-0.19,0.86-0.19,1.57v3.31h-1.87V280.86z"/>
		<path class="st3" d="M-219.86,280.86h1.87v7.44h-1.87v-0.79c-0.36,0.35-0.73,0.6-1.1,0.75c-0.37,0.15-0.76,0.23-1.19,0.23
			c-0.96,0-1.79-0.37-2.49-1.12c-0.7-0.75-1.05-1.67-1.05-2.78c0-1.15,0.34-2.09,1.02-2.82c0.68-0.73,1.5-1.1,2.47-1.1
			c0.45,0,0.86,0.08,1.26,0.25c0.39,0.17,0.75,0.42,1.09,0.76V280.86z M-221.82,282.4c-0.58,0-1.06,0.2-1.44,0.61
			c-0.38,0.41-0.57,0.93-0.57,1.57c0,0.64,0.19,1.17,0.58,1.59c0.39,0.41,0.87,0.62,1.43,0.62c0.59,0,1.07-0.2,1.46-0.61
			c0.39-0.41,0.58-0.94,0.58-1.6c0-0.65-0.19-1.17-0.58-1.57C-220.75,282.6-221.23,282.4-221.82,282.4z"/>
		<path class="st3" d="M-216.11,280.86h1.87v0.76c0.42-0.36,0.81-0.6,1.15-0.74c0.34-0.14,0.69-0.21,1.05-0.21
			c0.74,0,1.36,0.26,1.88,0.77c0.43,0.44,0.65,1.08,0.65,1.94v4.92h-1.85v-3.26c0-0.89-0.04-1.48-0.12-1.77
			c-0.08-0.29-0.22-0.51-0.42-0.67c-0.2-0.15-0.44-0.23-0.73-0.23c-0.38,0-0.7,0.13-0.97,0.38s-0.46,0.6-0.56,1.05
			c-0.05,0.23-0.08,0.74-0.08,1.51v2.98h-1.87V280.86z"/>
		<path class="st3" d="M-198.31,279.61l-1.42,1.25c-0.5-0.69-1-1.04-1.52-1.04c-0.25,0-0.46,0.07-0.62,0.2
			c-0.16,0.13-0.24,0.29-0.24,0.46c0,0.17,0.06,0.33,0.17,0.48c0.15,0.2,0.62,0.63,1.4,1.29c0.73,0.61,1.17,1,1.33,1.16
			c0.39,0.39,0.66,0.77,0.83,1.12c0.16,0.36,0.24,0.75,0.24,1.17c0,0.82-0.29,1.51-0.86,2.04c-0.57,0.54-1.31,0.81-2.23,0.81
			c-0.72,0-1.34-0.18-1.87-0.53c-0.53-0.35-0.99-0.9-1.37-1.65l1.61-0.97c0.48,0.89,1.04,1.33,1.67,1.33c0.33,0,0.6-0.1,0.83-0.29
			s0.34-0.41,0.34-0.66c0-0.23-0.08-0.46-0.25-0.68c-0.17-0.23-0.54-0.58-1.12-1.05c-1.1-0.89-1.8-1.58-2.12-2.07
			c-0.32-0.49-0.48-0.97-0.48-1.45c0-0.7,0.27-1.3,0.8-1.79c0.53-0.5,1.19-0.75,1.97-0.75c0.5,0,0.98,0.12,1.43,0.35
			C-199.33,278.57-198.84,279-198.31,279.61z"/>
		<path class="st3" d="M-191.02,280.86h1.87v7.44h-1.87v-0.79c-0.36,0.35-0.73,0.6-1.1,0.75c-0.37,0.15-0.76,0.23-1.19,0.23
			c-0.96,0-1.79-0.37-2.49-1.12c-0.7-0.75-1.05-1.67-1.05-2.78c0-1.15,0.34-2.09,1.02-2.82c0.68-0.73,1.5-1.1,2.47-1.1
			c0.45,0,0.86,0.08,1.26,0.25c0.39,0.17,0.75,0.42,1.09,0.76V280.86z M-192.98,282.4c-0.58,0-1.06,0.2-1.44,0.61
			c-0.38,0.41-0.57,0.93-0.57,1.57c0,0.64,0.19,1.17,0.58,1.59c0.39,0.41,0.87,0.62,1.43,0.62c0.59,0,1.07-0.2,1.46-0.61
			c0.39-0.41,0.58-0.94,0.58-1.6c0-0.65-0.19-1.17-0.58-1.57C-191.9,282.6-192.39,282.4-192.98,282.4z"/>
		<path class="st3" d="M-188.16,280.86h0.66c0-0.98,0.02-1.55,0.05-1.73c0.05-0.41,0.22-0.74,0.52-0.97s0.71-0.36,1.25-0.36
			c0.39,0,0.82,0.09,1.31,0.27v1.42c-0.27-0.08-0.49-0.12-0.66-0.12c-0.22,0-0.38,0.04-0.48,0.14c-0.07,0.07-0.11,0.21-0.11,0.42
			l-0.01,0.93h1.18v1.58h-1.18v5.86h-1.87v-5.86h-0.66V280.86z"/>
		<path class="st3" d="M-184.24,280.86h0.66c0-0.98,0.02-1.55,0.05-1.73c0.05-0.41,0.22-0.74,0.52-0.97s0.71-0.36,1.25-0.36
			c0.39,0,0.82,0.09,1.31,0.27v1.42c-0.27-0.08-0.49-0.12-0.66-0.12c-0.22,0-0.38,0.04-0.48,0.14c-0.07,0.07-0.11,0.21-0.11,0.42
			l-0.01,0.93h1.18v1.58h-1.18v5.86h-1.87v-5.86h-0.66V280.86z"/>
		<path class="st3" d="M-173.95,280.86h1.87v7.44h-1.87v-0.79c-0.36,0.35-0.73,0.6-1.1,0.75c-0.37,0.15-0.76,0.23-1.19,0.23
			c-0.96,0-1.79-0.37-2.49-1.12s-1.05-1.67-1.05-2.78c0-1.15,0.34-2.09,1.02-2.82c0.68-0.73,1.5-1.1,2.47-1.1
			c0.45,0,0.87,0.08,1.26,0.25c0.39,0.17,0.75,0.42,1.09,0.76V280.86z M-175.91,282.4c-0.58,0-1.06,0.2-1.44,0.61
			c-0.38,0.41-0.57,0.93-0.57,1.57c0,0.64,0.19,1.17,0.58,1.59c0.39,0.41,0.87,0.62,1.43,0.62c0.59,0,1.07-0.2,1.46-0.61
			c0.38-0.41,0.58-0.94,0.58-1.6c0-0.65-0.19-1.17-0.58-1.57C-174.83,282.6-175.32,282.4-175.91,282.4z"/>
		<path class="st3" d="M-170.63,280.86h1.6v0.94c0.17-0.37,0.4-0.65,0.69-0.84s0.6-0.29,0.94-0.29c0.24,0,0.49,0.06,0.76,0.19
			l-0.58,1.61c-0.22-0.11-0.4-0.16-0.54-0.16c-0.29,0-0.53,0.18-0.73,0.53c-0.2,0.36-0.3,1.05-0.3,2.09l0.01,0.36v3.01h-1.85V280.86
			z"/>
		<path class="st3" d="M-164.99,277.8c0.33,0,0.61,0.12,0.84,0.36c0.23,0.24,0.35,0.52,0.35,0.86c0,0.33-0.12,0.62-0.35,0.85
			c-0.23,0.24-0.51,0.35-0.83,0.35c-0.33,0-0.62-0.12-0.85-0.36c-0.23-0.24-0.35-0.53-0.35-0.87c0-0.33,0.12-0.61,0.35-0.84
			S-165.31,277.8-164.99,277.8z M-165.92,280.86h1.87v7.44h-1.87V280.86z"/>
	</g>
	<path class="st3" d="M-248.23,298.05v5.31h-0.67v-0.91c-0.29,0.35-0.61,0.61-0.96,0.79s-0.75,0.26-1.17,0.26
		c-0.75,0-1.39-0.27-1.93-0.82c-0.53-0.54-0.8-1.21-0.8-1.99c0-0.77,0.27-1.42,0.81-1.96c0.54-0.54,1.18-0.82,1.94-0.82
		c0.44,0,0.83,0.09,1.18,0.28s0.66,0.46,0.93,0.83v-0.98H-248.23z M-250.97,298.58c-0.38,0-0.73,0.09-1.05,0.28
		c-0.32,0.19-0.58,0.45-0.77,0.79c-0.19,0.34-0.29,0.7-0.29,1.07c0,0.37,0.1,0.73,0.29,1.07s0.45,0.61,0.77,0.8
		c0.32,0.19,0.67,0.29,1.04,0.29c0.37,0,0.73-0.09,1.06-0.28c0.33-0.19,0.59-0.44,0.77-0.77c0.18-0.32,0.27-0.68,0.27-1.09
		c0-0.61-0.2-1.13-0.61-1.54S-250.37,298.58-250.97,298.58z"/>
	<path class="st3" d="M-245.94,302.29c0.17,0,0.31,0.06,0.42,0.18s0.18,0.26,0.18,0.43c0,0.17-0.06,0.31-0.18,0.43
		c-0.12,0.12-0.26,0.18-0.42,0.18s-0.31-0.06-0.42-0.18c-0.12-0.12-0.18-0.26-0.18-0.43c0-0.17,0.06-0.31,0.18-0.43
		S-246.11,302.29-245.94,302.29z"/>
	<path class="st3" d="M-241.26,298.63l-0.44,0.45c-0.37-0.36-0.72-0.53-1.07-0.53c-0.22,0-0.41,0.07-0.57,0.22s-0.24,0.32-0.24,0.51
		c0,0.17,0.07,0.34,0.2,0.49c0.13,0.16,0.4,0.35,0.82,0.56c0.51,0.26,0.85,0.52,1.04,0.76c0.18,0.25,0.27,0.53,0.27,0.83
		c0,0.44-0.15,0.81-0.46,1.11c-0.31,0.3-0.69,0.45-1.15,0.45c-0.31,0-0.6-0.07-0.88-0.2c-0.28-0.13-0.51-0.32-0.69-0.55l0.43-0.49
		c0.35,0.39,0.72,0.59,1.11,0.59c0.27,0,0.51-0.09,0.7-0.26c0.19-0.18,0.29-0.38,0.29-0.62c0-0.2-0.06-0.37-0.19-0.52
		c-0.13-0.15-0.41-0.34-0.86-0.57c-0.48-0.25-0.81-0.49-0.98-0.73c-0.17-0.24-0.26-0.52-0.26-0.83c0-0.4,0.14-0.74,0.41-1.01
		c0.28-0.27,0.62-0.4,1.04-0.4C-242.24,297.92-241.75,298.16-241.26,298.63z"/>
	<path class="st3" d="M-234.75,298.05v5.31h-0.67v-0.91c-0.29,0.35-0.61,0.61-0.96,0.79s-0.75,0.26-1.17,0.26
		c-0.75,0-1.39-0.27-1.93-0.82c-0.53-0.54-0.8-1.21-0.8-1.99c0-0.77,0.27-1.42,0.81-1.96c0.54-0.54,1.18-0.82,1.94-0.82
		c0.44,0,0.83,0.09,1.18,0.28s0.66,0.46,0.93,0.83v-0.98H-234.75z M-237.48,298.58c-0.38,0-0.73,0.09-1.05,0.28
		c-0.32,0.19-0.58,0.45-0.77,0.79c-0.19,0.34-0.29,0.7-0.29,1.07c0,0.37,0.1,0.73,0.29,1.07s0.45,0.61,0.77,0.8
		c0.32,0.19,0.67,0.29,1.04,0.29c0.37,0,0.73-0.09,1.06-0.28c0.33-0.19,0.59-0.44,0.77-0.77c0.18-0.32,0.27-0.68,0.27-1.09
		c0-0.61-0.2-1.13-0.61-1.54S-236.89,298.58-237.48,298.58z"/>
	<path class="st3" d="M-231.03,296v0.67c-0.25-0.11-0.47-0.16-0.64-0.16c-0.13,0-0.24,0.03-0.33,0.08s-0.14,0.12-0.17,0.19
		c-0.02,0.07-0.03,0.26-0.03,0.56l0,0.72h1.11v0.59h-1.11l0,4.72h-0.68v-4.72h-0.7v-0.59h0.7v-0.83c0-0.38,0.04-0.65,0.1-0.82
		c0.07-0.16,0.19-0.29,0.36-0.39c0.17-0.1,0.37-0.15,0.61-0.15C-231.6,295.87-231.34,295.91-231.03,296z"/>
	<path class="st3" d="M-227.89,296v0.67c-0.25-0.11-0.47-0.16-0.64-0.16c-0.13,0-0.24,0.03-0.33,0.08s-0.14,0.12-0.17,0.19
		c-0.02,0.07-0.03,0.26-0.03,0.56l0,0.72h1.11v0.59h-1.11l0,4.72h-0.68v-4.72h-0.7v-0.59h0.7v-0.83c0-0.38,0.04-0.65,0.1-0.82
		c0.07-0.16,0.19-0.29,0.36-0.39c0.17-0.1,0.37-0.15,0.61-0.15C-228.46,295.87-228.2,295.91-227.89,296z"/>
	<path class="st3" d="M-221.64,298.05v5.31h-0.67v-0.91c-0.29,0.35-0.61,0.61-0.96,0.79s-0.75,0.26-1.17,0.26
		c-0.75,0-1.39-0.27-1.93-0.82c-0.53-0.54-0.8-1.21-0.8-1.99c0-0.77,0.27-1.42,0.81-1.96c0.54-0.54,1.18-0.82,1.94-0.82
		c0.44,0,0.83,0.09,1.18,0.28s0.66,0.46,0.93,0.83v-0.98H-221.64z M-224.37,298.58c-0.38,0-0.73,0.09-1.05,0.28
		c-0.32,0.19-0.58,0.45-0.77,0.79c-0.19,0.34-0.29,0.7-0.29,1.07c0,0.37,0.1,0.73,0.29,1.07s0.45,0.61,0.77,0.8
		c0.32,0.19,0.67,0.29,1.04,0.29c0.37,0,0.73-0.09,1.06-0.28c0.33-0.19,0.59-0.44,0.77-0.77c0.18-0.32,0.27-0.68,0.27-1.09
		c0-0.61-0.2-1.13-0.61-1.54S-223.78,298.58-224.37,298.58z"/>
	<path class="st3" d="M-220.36,298.05h0.7v0.78c0.21-0.31,0.43-0.54,0.66-0.69s0.47-0.23,0.72-0.23c0.19,0,0.39,0.06,0.61,0.18
		l-0.36,0.58c-0.14-0.06-0.26-0.09-0.36-0.09c-0.23,0-0.45,0.09-0.66,0.28c-0.21,0.19-0.37,0.48-0.48,0.87
		c-0.08,0.3-0.13,0.91-0.13,1.84v1.8h-0.7V298.05z"/>
	<path class="st3" d="M-216.86,295.87c0.16,0,0.29,0.05,0.4,0.17c0.11,0.11,0.17,0.24,0.17,0.4c0,0.15-0.06,0.28-0.17,0.4
		c-0.11,0.11-0.24,0.17-0.4,0.17c-0.15,0-0.28-0.06-0.39-0.17c-0.11-0.11-0.17-0.24-0.17-0.4c0-0.16,0.06-0.29,0.17-0.4
		C-217.14,295.92-217.01,295.87-216.86,295.87z M-217.2,298.05h0.68v5.31h-0.68V298.05z"/>
	<path class="st3" d="M-214.7,298.43h-0.69c0.02-0.71,0.26-1.29,0.71-1.75c0.45-0.45,1.01-0.68,1.68-0.68c0.66,0,1.2,0.21,1.6,0.64
		s0.61,0.93,0.61,1.51c0,0.41-0.1,0.79-0.29,1.15c-0.19,0.36-0.57,0.84-1.13,1.45l-1.79,1.93h3.31v0.69h-4.88l2.74-2.97
		c0.56-0.6,0.92-1.04,1.09-1.33c0.17-0.29,0.25-0.59,0.25-0.91c0-0.4-0.15-0.75-0.45-1.04c-0.3-0.29-0.67-0.44-1.11-0.44
		c-0.46,0-0.84,0.15-1.15,0.46C-214.48,297.45-214.66,297.88-214.7,298.43z"/>
	<path class="st3" d="M-205.4,296.18v0.68h-2.55l-0.36,1.96c0.31-0.09,0.59-0.14,0.84-0.14c0.65,0,1.19,0.22,1.62,0.66
		c0.42,0.44,0.64,1,0.64,1.68c0,0.47-0.11,0.9-0.33,1.3c-0.22,0.39-0.51,0.7-0.89,0.91s-0.8,0.32-1.29,0.32
		c-0.58,0-1.07-0.18-1.47-0.54s-0.64-0.82-0.72-1.38h0.74c0.06,0.28,0.15,0.5,0.28,0.67c0.13,0.17,0.31,0.31,0.53,0.42
		c0.22,0.11,0.45,0.16,0.69,0.16c0.47,0,0.88-0.18,1.22-0.54c0.34-0.36,0.51-0.8,0.51-1.34c0-0.48-0.15-0.88-0.46-1.18
		c-0.31-0.3-0.71-0.45-1.23-0.45c-0.42,0-0.94,0.13-1.54,0.39l0.66-3.57H-205.4z"/>
	<path class="st3" d="M-201.1,296l0.59,0.39l-1.94,2.94c0.26-0.09,0.5-0.13,0.73-0.13c0.57,0,1.05,0.21,1.45,0.62
		c0.4,0.41,0.6,0.92,0.6,1.52c0,0.41-0.1,0.79-0.29,1.12c-0.19,0.33-0.46,0.6-0.82,0.8c-0.35,0.2-0.73,0.3-1.14,0.3
		c-0.39,0-0.76-0.1-1.1-0.29c-0.34-0.19-0.6-0.46-0.79-0.8c-0.19-0.35-0.29-0.71-0.29-1.11c0-0.29,0.06-0.6,0.18-0.93
		c0.12-0.32,0.33-0.71,0.64-1.17L-201.1,296z M-201.89,299.83c-0.42,0-0.77,0.15-1.07,0.44c-0.29,0.29-0.44,0.65-0.44,1.07
		c0,0.42,0.15,0.77,0.44,1.07c0.3,0.29,0.65,0.44,1.07,0.44s0.77-0.15,1.07-0.44c0.3-0.29,0.44-0.65,0.44-1.07
		c0-0.42-0.15-0.78-0.44-1.07C-201.12,299.97-201.47,299.83-201.89,299.83z"/>
	<path class="st3" d="M-192.18,301.9h0.52c-0.44,0.54-0.84,0.92-1.21,1.14c-0.53,0.31-1.13,0.46-1.8,0.46
		c-0.71,0-1.37-0.17-1.97-0.51s-1.07-0.8-1.41-1.38s-0.51-1.22-0.51-1.91c0-0.7,0.17-1.35,0.51-1.95s0.8-1.07,1.39-1.4
		c0.59-0.33,1.23-0.5,1.92-0.5c0.98,0,1.81,0.32,2.49,0.95c0.68,0.63,1.02,1.36,1.02,2.2c0,0.61-0.14,1.13-0.42,1.58
		s-0.66,0.78-1.15,1.03c-0.37,0.19-0.68,0.28-0.94,0.28c-0.19,0-0.34-0.05-0.45-0.15c-0.08-0.08-0.13-0.21-0.13-0.39
		c-0.11,0.14-0.26,0.26-0.46,0.35c-0.19,0.09-0.4,0.14-0.6,0.14c-0.47,0-0.86-0.16-1.16-0.49c-0.31-0.32-0.46-0.75-0.46-1.29
		c0-0.58,0.19-1.1,0.56-1.58c0.37-0.48,0.88-0.71,1.53-0.71c0.29,0,0.53,0.05,0.72,0.16c0.19,0.11,0.38,0.29,0.55,0.56l0.13-0.67
		h0.53l-0.57,3.19c-0.02,0.1-0.02,0.17-0.02,0.2c0,0.08,0.02,0.14,0.07,0.18s0.1,0.06,0.18,0.06c0.19,0,0.44-0.11,0.75-0.33
		s0.55-0.51,0.72-0.86s0.26-0.74,0.26-1.17c0-0.83-0.32-1.51-0.96-2.06c-0.6-0.5-1.33-0.76-2.19-0.76c-0.64,0-1.22,0.15-1.74,0.44
		c-0.52,0.29-0.93,0.7-1.23,1.23c-0.3,0.53-0.45,1.1-0.45,1.72c0,0.62,0.15,1.2,0.45,1.72s0.72,0.94,1.26,1.24
		c0.54,0.3,1.13,0.45,1.77,0.45c0.47,0,0.9-0.08,1.28-0.25C-193.03,302.65-192.62,302.34-192.18,301.9z M-195.14,301.28
		c0.21,0,0.42-0.07,0.61-0.2c0.19-0.14,0.34-0.34,0.45-0.61c0.14-0.36,0.21-0.71,0.21-1.07c0-0.33-0.09-0.6-0.28-0.8
		c-0.18-0.21-0.42-0.31-0.71-0.31c-0.39,0-0.73,0.16-1.01,0.48s-0.43,0.72-0.43,1.2c0,0.4,0.11,0.72,0.32,0.96
		S-195.48,301.28-195.14,301.28z"/>
	<path class="st3" d="M-185.22,298.05h0.68v4.23c0,0.75-0.06,1.29-0.2,1.64c-0.18,0.49-0.49,0.86-0.93,1.13s-0.98,0.4-1.6,0.4
		c-0.46,0-0.87-0.06-1.23-0.19s-0.66-0.3-0.89-0.52s-0.44-0.53-0.63-0.95h0.74c0.2,0.35,0.46,0.61,0.78,0.78
		c0.32,0.17,0.72,0.25,1.19,0.25c0.47,0,0.86-0.09,1.18-0.26c0.32-0.17,0.55-0.39,0.69-0.65c0.14-0.26,0.21-0.69,0.21-1.27v-0.27
		c-0.26,0.33-0.57,0.58-0.94,0.75c-0.37,0.17-0.77,0.26-1.18,0.26c-0.49,0-0.95-0.12-1.38-0.36c-0.43-0.24-0.76-0.57-1-0.98
		c-0.23-0.41-0.35-0.86-0.35-1.35c0-0.49,0.12-0.95,0.37-1.38c0.24-0.42,0.58-0.76,1.01-1.01c0.43-0.25,0.89-0.37,1.37-0.37
		c0.4,0,0.77,0.08,1.11,0.25c0.34,0.17,0.68,0.44,0.99,0.81V298.05z M-187.23,298.58c-0.39,0-0.75,0.09-1.08,0.28
		c-0.33,0.19-0.59,0.45-0.78,0.78c-0.19,0.33-0.28,0.69-0.28,1.07c0,0.58,0.2,1.06,0.59,1.45s0.9,0.57,1.52,0.57
		c0.63,0,1.13-0.19,1.52-0.57c0.38-0.38,0.57-0.87,0.57-1.49c0-0.4-0.09-0.76-0.26-1.07c-0.18-0.31-0.42-0.56-0.75-0.74
		C-186.51,298.67-186.86,298.58-187.23,298.58z"/>
	<path class="st3" d="M-183.07,298.05h0.68v0.92c0.24-0.34,0.48-0.59,0.73-0.74c0.35-0.21,0.71-0.31,1.09-0.31
		c0.26,0,0.5,0.05,0.73,0.15c0.23,0.1,0.42,0.24,0.57,0.4c0.15,0.17,0.27,0.41,0.38,0.72c0.23-0.42,0.51-0.73,0.85-0.95
		c0.34-0.22,0.71-0.32,1.1-0.32c0.37,0,0.69,0.09,0.97,0.28c0.28,0.19,0.49,0.44,0.62,0.78s0.21,0.83,0.21,1.49v2.9h-0.7v-2.9
		c0-0.57-0.04-0.96-0.12-1.17c-0.08-0.21-0.22-0.38-0.42-0.51c-0.2-0.13-0.43-0.2-0.7-0.2c-0.33,0-0.63,0.1-0.91,0.29
		c-0.27,0.2-0.47,0.46-0.6,0.78c-0.12,0.33-0.19,0.87-0.19,1.63v2.08h-0.68v-2.72c0-0.64-0.04-1.08-0.12-1.31s-0.22-0.41-0.42-0.55
		c-0.2-0.14-0.43-0.21-0.71-0.21c-0.32,0-0.61,0.09-0.89,0.29s-0.48,0.45-0.61,0.77s-0.2,0.82-0.2,1.48v2.25h-0.68V298.05z"/>
	<path class="st3" d="M-168.4,298.05v5.31h-0.67v-0.91c-0.29,0.35-0.61,0.61-0.96,0.79c-0.36,0.18-0.75,0.26-1.17,0.26
		c-0.75,0-1.39-0.27-1.93-0.82c-0.53-0.54-0.8-1.21-0.8-1.99c0-0.77,0.27-1.42,0.81-1.96c0.54-0.54,1.18-0.82,1.94-0.82
		c0.44,0,0.83,0.09,1.18,0.28c0.35,0.19,0.66,0.46,0.93,0.83v-0.98H-168.4z M-171.13,298.58c-0.38,0-0.73,0.09-1.05,0.28
		c-0.32,0.19-0.58,0.45-0.77,0.79c-0.19,0.34-0.29,0.7-0.29,1.07c0,0.37,0.1,0.73,0.29,1.07c0.19,0.34,0.45,0.61,0.77,0.8
		c0.32,0.19,0.67,0.29,1.04,0.29c0.37,0,0.73-0.09,1.06-0.28s0.59-0.44,0.77-0.77s0.27-0.68,0.27-1.09c0-0.61-0.2-1.13-0.61-1.54
		C-170.04,298.78-170.54,298.58-171.13,298.58z"/>
	<path class="st3" d="M-166.62,295.87c0.16,0,0.29,0.05,0.4,0.17c0.11,0.11,0.17,0.24,0.17,0.4c0,0.15-0.05,0.28-0.17,0.4
		c-0.11,0.11-0.24,0.17-0.4,0.17c-0.15,0-0.28-0.06-0.39-0.17c-0.11-0.11-0.17-0.24-0.17-0.4c0-0.16,0.05-0.29,0.17-0.4
		C-166.9,295.92-166.77,295.87-166.62,295.87z M-166.96,298.05h0.68v5.31h-0.68V298.05z"/>
	<path class="st3" d="M-164.96,296h0.68v7.36h-0.68V296z"/>
	<path class="st3" d="M-162.1,302.29c0.17,0,0.31,0.06,0.42,0.18s0.18,0.26,0.18,0.43c0,0.17-0.06,0.31-0.18,0.43
		c-0.12,0.12-0.26,0.18-0.42,0.18s-0.31-0.06-0.42-0.18c-0.12-0.12-0.18-0.26-0.18-0.43c0-0.17,0.06-0.31,0.18-0.43
		S-162.27,302.29-162.1,302.29z"/>
	<path class="st3" d="M-154.93,299.16l-0.54,0.34c-0.47-0.62-1.11-0.93-1.92-0.93c-0.65,0-1.18,0.21-1.61,0.62s-0.64,0.92-0.64,1.52
		c0,0.39,0.1,0.75,0.29,1.09c0.2,0.34,0.47,0.61,0.81,0.79s0.73,0.28,1.15,0.28c0.78,0,1.42-0.31,1.91-0.93l0.54,0.36
		c-0.25,0.38-0.59,0.68-1.02,0.89c-0.43,0.21-0.92,0.32-1.46,0.32c-0.84,0-1.54-0.27-2.09-0.8c-0.55-0.53-0.83-1.18-0.83-1.95
		c0-0.51,0.13-0.99,0.39-1.43c0.26-0.44,0.62-0.79,1.07-1.03c0.45-0.25,0.96-0.37,1.52-0.37c0.35,0,0.69,0.05,1.02,0.16
		c0.33,0.11,0.61,0.25,0.83,0.42C-155.28,298.67-155.09,298.89-154.93,299.16z"/>
	<path class="st3" d="M-151.1,297.92c0.82,0,1.5,0.3,2.04,0.89c0.49,0.54,0.73,1.18,0.73,1.92c0,0.74-0.26,1.39-0.78,1.95
		c-0.52,0.56-1.18,0.83-1.99,0.83c-0.82,0-1.48-0.28-2-0.83c-0.52-0.55-0.78-1.2-0.78-1.95c0-0.74,0.24-1.37,0.73-1.91
		C-152.6,298.21-151.92,297.92-151.1,297.92z M-151.1,298.59c-0.57,0-1.06,0.21-1.46,0.63s-0.61,0.93-0.61,1.52
		c0,0.38,0.09,0.74,0.28,1.07s0.44,0.59,0.75,0.77c0.32,0.18,0.66,0.27,1.04,0.27s0.73-0.09,1.04-0.27
		c0.32-0.18,0.57-0.44,0.75-0.77s0.28-0.69,0.28-1.07c0-0.6-0.21-1.1-0.62-1.52S-150.54,298.59-151.1,298.59z"/>
	<path class="st3" d="M-147.07,298.05h0.68v0.92c0.24-0.34,0.48-0.59,0.73-0.74c0.35-0.21,0.71-0.31,1.09-0.31
		c0.26,0,0.5,0.05,0.73,0.15c0.23,0.1,0.42,0.24,0.57,0.4c0.15,0.17,0.27,0.41,0.38,0.72c0.23-0.42,0.51-0.73,0.85-0.95
		c0.34-0.22,0.71-0.32,1.1-0.32c0.37,0,0.69,0.09,0.97,0.28c0.28,0.19,0.49,0.44,0.62,0.78c0.14,0.33,0.21,0.83,0.21,1.49v2.9h-0.7
		v-2.9c0-0.57-0.04-0.96-0.12-1.17c-0.08-0.21-0.22-0.38-0.42-0.51c-0.2-0.13-0.43-0.2-0.7-0.2c-0.33,0-0.63,0.1-0.91,0.29
		s-0.47,0.46-0.6,0.78c-0.13,0.33-0.19,0.87-0.19,1.63v2.08h-0.68v-2.72c0-0.64-0.04-1.08-0.12-1.31c-0.08-0.23-0.22-0.41-0.42-0.55
		c-0.2-0.14-0.43-0.21-0.71-0.21c-0.32,0-0.61,0.09-0.89,0.29c-0.27,0.19-0.48,0.45-0.61,0.77c-0.13,0.32-0.2,0.82-0.2,1.48v2.25
		h-0.68V298.05z"/>
</g>
<rect x="-264.59" y="172.6" class="st4" width="0.7" height="144"/>
<rect x="-259.43" y="172.6" class="st4" width="0.7" height="144"/>
<g>
	<path class="st2" d="M-276.4,69.04V83.1c0,0.65,0.53,1.17,1.17,1.17h35.12c1.11,0,1.6-1.4,0.73-2.09l-17.68-14.06
		c-0.21-0.17-0.47-0.26-0.73-0.26h-17.44C-275.88,67.87-276.4,68.39-276.4,69.04z"/>
	<path class="st5" d="M-257.05,65.27l17.68-14.06c0.87-0.69,0.38-2.09-0.73-2.09h-35.12c-0.65,0-1.17,0.53-1.17,1.17v14.06
		c0,0.65,0.53,1.17,1.17,1.17h17.44C-257.52,65.52-257.26,65.43-257.05,65.27z"/>
	<path class="st2" d="M-93.69,64.35V50.29c0-0.65-0.53-1.17-1.17-1.17h-35.15c-0.65,0-1.17,0.53-1.17,1.17v14.06
		c0,0.65,0.53,1.17,1.17,1.17h35.15C-94.22,65.52-93.69,65-93.69,64.35z"/>
	<path class="st6" d="M-233.24,49.37l-20.62,16.4c-0.59,0.47-0.59,1.37,0,1.84l20.62,16.4c0.21,0.17,0.47,0.26,0.73,0.26h15.34
		c0.65,0,1.17-0.53,1.17-1.17V50.29c0-0.65-0.53-1.17-1.17-1.17h-15.34C-232.77,49.12-233.03,49.21-233.24,49.37z"/>
	<path class="st6" d="M-131.19,69.04V83.1c0,0.65,0.53,1.17,1.17,1.17h35.15c0.65,0,1.17-0.53,1.17-1.17V69.04
		c0-0.65-0.53-1.17-1.17-1.17h-35.15C-130.67,67.87-131.19,68.39-131.19,69.04z"/>
	<path class="st2" d="M-191.96,74.9L-191.96,74.9c0.6,0,1.11,0.46,1.16,1.06c0.34,3.98,2.67,5.97,6.99,5.97l23.87,0
		c3.43,0,6.35-2.63,6.57-6.05c0.34-5.34-1.99-8.01-7-8.01l-24.05,0c-4.56,0-8.42-3.5-8.71-8.05c-0.46-7.13,2.65-10.7,9.33-10.7
		h-28.86c-0.65,0-1.17,0.53-1.17,1.17V83.1c0,0.65,0.53,1.17,1.17,1.17h28.86c-5.81,0-8.92-2.7-9.33-8.1
		C-193.19,75.49-192.65,74.9-191.96,74.9z"/>
	<path class="st5" d="M-160.37,49.12c5.81,0,8.92,2.7,9.33,8.1c0.05,0.68-0.49,1.28-1.18,1.28l0,0c-0.6,0-1.11-0.46-1.16-1.06
		c-0.34-3.98-2.67-5.97-6.99-5.97l-23.87,0c-3.43,0-6.35,2.63-6.57,6.05c-0.34,5.34,1.99,8.01,7,8.01l24.05,0
		c4.56,0,8.42,3.5,8.71,8.05c0.46,7.13-2.65,10.7-9.33,10.7h25.66c0.65,0,1.17-0.53,1.17-1.17V50.29c0-0.65-0.53-1.17-1.17-1.17
		H-160.37z"/>
	<path class="st4" d="M-166.44,46.13h0.94c0.34,0,0.61,0.41,0.61,0.93v49.67c0,0.51-0.27,0.93-0.61,0.93h-0.94
		c-0.34,0-0.61-0.41-0.61-0.93V47.06C-167.05,46.55-166.78,46.13-166.44,46.13z"/>
	<path class="st5" d="M-161.12,88.95h2.13v0.87c0.48-0.41,0.92-0.69,1.31-0.85s0.79-0.24,1.21-0.24c0.84,0,1.56,0.29,2.15,0.88
		c0.49,0.5,0.74,1.24,0.74,2.22v5.62h-2.11v-3.72c0-1.01-0.05-1.69-0.14-2.02s-0.25-0.59-0.48-0.76c-0.23-0.17-0.5-0.26-0.84-0.26
		c-0.43,0-0.8,0.14-1.11,0.43c-0.31,0.29-0.52,0.69-0.64,1.2c-0.06,0.27-0.09,0.84-0.09,1.72v3.41h-2.13V88.95z"/>
	<path class="st5" d="M-144.12,90.14l-1.32,1.32c-0.54-0.53-1.02-0.8-1.46-0.8c-0.24,0-0.43,0.05-0.56,0.15s-0.2,0.23-0.2,0.38
		c0,0.11,0.04,0.22,0.13,0.32s0.3,0.23,0.64,0.39l0.78,0.39c0.82,0.41,1.39,0.82,1.7,1.24s0.46,0.92,0.46,1.48
		c0,0.75-0.28,1.39-0.83,1.89s-1.3,0.76-2.23,0.76c-1.24,0-2.23-0.48-2.97-1.45l1.31-1.43c0.25,0.29,0.54,0.53,0.88,0.71
		s0.63,0.27,0.89,0.27c0.28,0,0.51-0.07,0.68-0.2s0.26-0.29,0.26-0.47c0-0.33-0.31-0.65-0.93-0.96l-0.72-0.36
		c-1.38-0.69-2.06-1.56-2.06-2.6c0-0.67,0.26-1.25,0.78-1.72s1.18-0.71,1.99-0.71c0.55,0,1.07,0.12,1.56,0.36
		S-144.46,89.69-144.12,90.14z"/>
	<path class="st5" d="M-139.82,85.82h2.13v3.13h1.27v1.84h-1.27v6.66h-2.13v-6.66h-1.09v-1.84h1.09V85.82z"/>
	<path class="st5" d="M-132.25,85.45c0.37,0,0.69,0.14,0.96,0.41s0.4,0.6,0.4,0.98c0,0.38-0.13,0.7-0.4,0.97s-0.58,0.4-0.95,0.4
		c-0.38,0-0.7-0.14-0.97-0.41s-0.4-0.61-0.4-1c0-0.38,0.13-0.7,0.4-0.96S-132.63,85.45-132.25,85.45z M-133.32,88.95h2.13v8.5h-2.13
		V88.95z"/>
	<path class="st5" d="M-126.79,85.82h2.13v3.13h1.27v1.84h-1.27v6.66h-2.13v-6.66h-1.09v-1.84h1.09V85.82z"/>
	<path class="st5" d="M-120.06,88.95h2.16v4.09c0,0.8,0.05,1.35,0.16,1.66c0.11,0.31,0.29,0.55,0.53,0.72
		c0.24,0.17,0.54,0.26,0.9,0.26s0.66-0.08,0.9-0.25s0.43-0.42,0.55-0.75c0.09-0.25,0.13-0.77,0.13-1.57v-4.16h2.13v3.6
		c0,1.48-0.12,2.5-0.35,3.05c-0.29,0.67-0.71,1.18-1.27,1.54s-1.27,0.54-2.12,0.54c-0.93,0-1.69-0.21-2.26-0.62s-0.98-1-1.21-1.74
		c-0.17-0.52-0.25-1.45-0.25-2.81V88.95z"/>
	<path class="st5" d="M-107.99,85.82h2.13v3.13h1.27v1.84h-1.27v6.66h-2.13v-6.66h-1.09v-1.84h1.09V85.82z"/>
	<path class="st5" d="M-100.42,85.45c0.37,0,0.69,0.14,0.96,0.41s0.4,0.6,0.4,0.98c0,0.38-0.13,0.7-0.4,0.97s-0.58,0.4-0.95,0.4
		c-0.38,0-0.7-0.14-0.97-0.41s-0.4-0.61-0.4-1c0-0.38,0.13-0.7,0.4-0.96S-100.79,85.45-100.42,85.45z M-101.49,88.95h2.13v8.5h-2.13
		V88.95z"/>
	<path class="st5" d="M-92.22,88.73c0.8,0,1.56,0.2,2.26,0.6c0.71,0.4,1.26,0.95,1.65,1.63s0.59,1.43,0.59,2.23
		c0,0.8-0.2,1.55-0.6,2.25s-0.94,1.24-1.63,1.64s-1.45,0.59-2.27,0.59c-1.22,0-2.26-0.43-3.12-1.3s-1.29-1.92-1.29-3.16
		c0-1.33,0.49-2.43,1.46-3.32C-94.32,89.12-93.33,88.73-92.22,88.73z M-92.19,90.74c-0.66,0-1.21,0.23-1.66,0.69
		s-0.66,1.05-0.66,1.77c0,0.74,0.22,1.34,0.65,1.8s0.99,0.69,1.66,0.69s1.22-0.23,1.67-0.7s0.67-1.06,0.67-1.79
		s-0.22-1.32-0.65-1.78S-91.51,90.74-92.19,90.74z"/>
	<path class="st5" d="M-85.78,88.95h2.13v0.87c0.48-0.41,0.92-0.69,1.31-0.85s0.79-0.24,1.21-0.24c0.84,0,1.56,0.29,2.15,0.88
		c0.49,0.5,0.74,1.24,0.74,2.22v5.62h-2.11v-3.72c0-1.01-0.05-1.69-0.14-2.02s-0.25-0.59-0.48-0.76c-0.23-0.17-0.5-0.26-0.84-0.26
		c-0.43,0-0.8,0.14-1.11,0.43c-0.31,0.29-0.52,0.69-0.64,1.2c-0.06,0.27-0.09,0.84-0.09,1.72v3.41h-2.13V88.95z"/>
	<path class="st5" d="M-260.42,86.09h5.43c0,0,0,0,1.7,0v2.13c-1.7,0-1.7,0-1.7,0h-3.36c0,0,0,0,0,0v2.08c0,0,0,0,0,0h3.36
		c0,0,0,0,1.07-0.02v2.1c-1.06,0.02-1.06,0.02-1.07,0.02h-3.36c0,0,0,0,0,0v5.17c0,0,0,0,0,0h-2.07c0,0,0,0,0,0L-260.42,86.09
		C-260.43,86.09-260.43,86.09-260.42,86.09z"/>
	<path class="st5" d="M-248.8,85.65c0.36,0,0.66,0.14,0.92,0.41c0.25,0.27,0.38,0.6,0.38,0.98c0,0.38-0.13,0.7-0.38,0.97
		c-0.25,0.27-0.55,0.4-0.91,0.4c-0.36,0-0.67-0.14-0.92-0.41c-0.25-0.27-0.38-0.61-0.38-1c0-0.38,0.13-0.7,0.38-0.96
		C-249.46,85.78-249.16,85.65-248.8,85.65z M-249.82,89.15h2.03c0,0,0,0,0,0v8.5c0,0,0,0,0,0h-2.03c0,0,0,0,0,0L-249.82,89.15
		C-249.82,89.15-249.82,89.15-249.82,89.15z"/>
	<path class="st5" d="M-243.9,89.15C-243.9,89.15-243.89,89.15-243.9,89.15l2.03,0v0.87c0.46-0.41,0.88-0.69,1.25-0.85
		c0.37-0.16,0.76-0.24,1.15-0.24c0.8,0,1.48,0.29,2.04,0.88c0.47,0.5,0.71,1.24,0.71,2.22v5.62c0,0,0,0,0,0h-2.01c0,0,0,0,0,0v-3.72
		c0-1.01-0.04-1.69-0.13-2.02s-0.24-0.59-0.45-0.76c-0.22-0.17-0.48-0.26-0.8-0.26c-0.41,0-0.76,0.14-1.06,0.43s-0.5,0.69-0.61,1.2
		c-0.06,0.27-0.09,0.84-0.09,1.72v3.41c0,0,0,0,0,0h-2.03c0,0,0,0,0,0V89.15z"/>
	<path class="st5" d="M-226.73,89.15h2.03c0,0,0,0,0,0v8.5c0,0,0,0,0,0h-2.03v-0.9c-0.4,0.4-0.79,0.68-1.19,0.86
		s-0.83,0.26-1.3,0.26c-1.05,0-1.95-0.43-2.71-1.28s-1.14-1.91-1.14-3.18c0-1.31,0.37-2.39,1.11-3.23c0.74-0.84,1.64-1.26,2.69-1.26
		c0.49,0,0.94,0.1,1.37,0.29c0.43,0.19,0.82,0.48,1.18,0.87V89.15z M-228.86,90.9c-0.63,0-1.15,0.23-1.56,0.7
		c-0.42,0.47-0.62,1.06-0.62,1.79c0,0.73,0.21,1.34,0.63,1.81c0.42,0.47,0.94,0.71,1.56,0.71c0.64,0,1.17-0.23,1.59-0.7
		c0.42-0.47,0.63-1.08,0.63-1.83c0-0.74-0.21-1.34-0.63-1.8C-227.69,91.13-228.22,90.9-228.86,90.9z"/>
	<path class="st5" d="M-220.59,89.15C-220.59,89.15-220.59,89.15-220.59,89.15l2.03,0v0.87c0.46-0.41,0.88-0.69,1.25-0.85
		c0.37-0.16,0.76-0.24,1.15-0.24c0.8,0,1.48,0.29,2.04,0.88c0.47,0.5,0.71,1.24,0.71,2.22v5.62c0,0,0,0,0,0h-2.01c0,0,0,0,0,0v-3.72
		c0-1.01-0.04-1.69-0.13-2.02s-0.24-0.59-0.45-0.76c-0.22-0.17-0.48-0.26-0.8-0.26c-0.41,0-0.76,0.14-1.06,0.43s-0.5,0.69-0.61,1.2
		c-0.06,0.27-0.09,0.84-0.09,1.72v3.41c0,0,0,0,0,0h-2.03c0,0,0,0,0,0V89.15z"/>
	<path class="st5" d="M-201.48,90.87l-1.69,0.98c0,0,0,0,0,0c-0.32-0.35-0.63-0.59-0.94-0.73c-0.31-0.14-0.67-0.2-1.09-0.2
		c-0.76,0-1.37,0.24-1.84,0.71c-0.47,0.48-0.7,1.09-0.7,1.83c0,0.72,0.23,1.31,0.68,1.77c0.45,0.46,1.05,0.69,1.78,0.69
		c0.91,0,1.62-0.32,2.12-0.98c0,0,0,0,0,0l1.6,1.15c0,0,0,0,0,0c-0.87,1.18-2.09,1.78-3.67,1.78c-1.89,0-3.23-0.78-4.03-2.33
		c-0.35-0.68-0.54-1.45-0.52-2.21c0.02-0.78,0.21-1.51,0.59-2.17c0.39-0.69,0.94-1.24,1.64-1.63c0.7-0.4,1.49-0.59,2.36-0.59
		c0.8,0,1.53,0.17,2.17,0.5C-202.41,89.77-201.88,90.25-201.48,90.87C-201.48,90.87-201.48,90.87-201.48,90.87z"/>
	<path class="st5" d="M-196.81,85.65c0.36,0,0.66,0.14,0.92,0.41c0.25,0.27,0.38,0.6,0.38,0.98c0,0.38-0.13,0.7-0.38,0.97
		c-0.25,0.27-0.55,0.4-0.91,0.4c-0.36,0-0.67-0.14-0.92-0.41c-0.25-0.27-0.38-0.61-0.38-1c0-0.38,0.13-0.7,0.38-0.96
		C-197.47,85.78-197.16,85.65-196.81,85.65z M-197.82,89.15h2.03c0,0,0,0,0,0v8.5c0,0,0,0,0,0h-2.03c0,0,0,0,0,0L-197.82,89.15
		C-197.82,89.15-197.82,89.15-197.82,89.15z"/>
	<path class="st5" d="M-185.92,89.15h2.03c0,0,0,0,0,0v8.5c0,0,0,0,0,0h-2.03v-0.9c-0.4,0.4-0.79,0.68-1.19,0.86
		s-0.83,0.26-1.3,0.26c-1.05,0-1.95-0.43-2.71-1.28s-1.14-1.91-1.14-3.18c0-1.31,0.37-2.39,1.11-3.23c0.74-0.84,1.64-1.26,2.69-1.26
		c0.49,0,0.94,0.1,1.37,0.29c0.43,0.19,0.82,0.48,1.18,0.87V89.15z M-188.06,90.9c-0.63,0-1.15,0.23-1.56,0.7
		c-0.42,0.47-0.62,1.06-0.62,1.79c0,0.73,0.21,1.34,0.63,1.81c0.42,0.47,0.94,0.71,1.56,0.71c0.64,0,1.17-0.23,1.59-0.7
		c0.42-0.47,0.63-1.08,0.63-1.83c0-0.74-0.21-1.34-0.63-1.8C-186.88,91.13-187.41,90.9-188.06,90.9z"/>
	<path class="st4" d="M-179.05,46.13h0.94c0.34,0,0.61,0.41,0.61,0.93v49.67c0,0.51-0.27,0.93-0.61,0.93h-0.94
		c-0.34,0-0.61-0.41-0.61-0.93V47.06C-179.66,46.55-179.38,46.13-179.05,46.13z"/>
</g>
<rect x="-211.17" y="112.6" style="fill:none;" width="2.04" height="6.13"/>
<rect x="-114.15" y="174.21" style="fill:none;" width="4.43" height="0"/>
<g>
	<rect x="290.19" y="-106.07" class="st0" width="119" height="119"/>
	<path class="st0" d="M408.69-105.57v118h-118v-118H408.69 M409.69-106.57h-120v120h120V-106.57L409.69-106.57z"/>
</g>
<rect x="289.69" y="133.43" class="st7" width="120" height="120"/>
<rect x="289.69" y="13.43" class="st1" width="120" height="120"/>
<rect x="289.69" y="253.43" class="st8" width="120" height="120"/>
<g>
	<path class="st0" d="M56.88,92.64h-4.5v4.65h-2.34V85.92h7.41v1.9h-5.06v2.94h4.5V92.64z"/>
	<path class="st0" d="M60.24,86.65c0-0.34,0.11-0.62,0.34-0.84s0.54-0.33,0.93-0.33c0.39,0,0.69,0.11,0.92,0.33s0.34,0.5,0.34,0.84
		c0,0.34-0.12,0.62-0.35,0.84s-0.54,0.33-0.92,0.33s-0.69-0.11-0.92-0.33S60.24,87,60.24,86.65z M62.63,97.29h-2.27v-8.45h2.27
		V97.29z"/>
	<path class="st0" d="M68.17,88.84l0.07,0.98c0.6-0.75,1.41-1.13,2.43-1.13c0.9,0,1.56,0.26,2,0.79c0.44,0.53,0.66,1.31,0.67,2.36
		v5.46h-2.26v-5.41c0-0.48-0.1-0.83-0.31-1.04c-0.21-0.22-0.55-0.32-1.04-0.32c-0.64,0-1.11,0.27-1.43,0.81v5.96h-2.26v-8.45H68.17z
		"/>
	<path class="st0" d="M81.55,97.29c-0.1-0.2-0.18-0.46-0.23-0.76c-0.55,0.61-1.26,0.91-2.13,0.91c-0.83,0-1.51-0.24-2.06-0.72
		c-0.54-0.48-0.82-1.08-0.82-1.81c0-0.9,0.33-1.58,1-2.06c0.66-0.48,1.62-0.72,2.88-0.73h1.04v-0.48c0-0.39-0.1-0.7-0.3-0.94
		s-0.52-0.35-0.95-0.35c-0.38,0-0.68,0.09-0.89,0.27c-0.22,0.18-0.32,0.43-0.32,0.75h-2.26c0-0.49,0.15-0.94,0.45-1.36
		c0.3-0.42,0.73-0.74,1.28-0.98c0.55-0.24,1.17-0.36,1.86-0.36c1.04,0,1.87,0.26,2.48,0.79s0.92,1.26,0.92,2.21v3.66
		c0,0.8,0.12,1.41,0.34,1.82v0.13H81.55z M79.69,95.72c0.33,0,0.64-0.07,0.92-0.22s0.49-0.35,0.62-0.6v-1.45h-0.84
		c-1.13,0-1.73,0.39-1.8,1.17l-0.01,0.13c0,0.28,0.1,0.51,0.3,0.7C79.07,95.63,79.34,95.72,79.69,95.72z"/>
	<path class="st0" d="M88.91,88.84l0.07,0.98c0.6-0.75,1.41-1.13,2.43-1.13c0.9,0,1.56,0.26,2,0.79c0.44,0.53,0.66,1.31,0.67,2.36
		v5.46h-2.26v-5.41c0-0.48-0.1-0.83-0.31-1.04c-0.21-0.22-0.55-0.32-1.04-0.32c-0.64,0-1.11,0.27-1.43,0.81v5.96h-2.26v-8.45H88.91z
		"/>
	<path class="st0" d="M100.91,95.63c0.42,0,0.75-0.11,1.02-0.34c0.26-0.23,0.4-0.53,0.41-0.91h2.12c0,0.57-0.16,1.1-0.47,1.57
		s-0.73,0.85-1.26,1.11s-1.12,0.39-1.77,0.39c-1.21,0-2.16-0.38-2.86-1.15c-0.7-0.77-1.05-1.83-1.05-3.18v-0.15
		c0-1.3,0.35-2.34,1.04-3.12c0.69-0.78,1.64-1.16,2.85-1.16c1.06,0,1.91,0.3,2.54,0.9s0.96,1.4,0.97,2.4h-2.12
		c-0.01-0.44-0.15-0.8-0.41-1.07c-0.26-0.27-0.6-0.41-1.03-0.41c-0.53,0-0.92,0.19-1.19,0.58s-0.4,1.01-0.4,1.87v0.23
		c0,0.87,0.13,1.5,0.4,1.88S100.37,95.63,100.91,95.63z"/>
	<path class="st0" d="M107.32,86.65c0-0.34,0.11-0.62,0.34-0.84s0.54-0.33,0.93-0.33c0.39,0,0.69,0.11,0.92,0.33s0.34,0.5,0.34,0.84
		c0,0.34-0.12,0.62-0.35,0.84s-0.54,0.33-0.92,0.33s-0.69-0.11-0.92-0.33S107.32,87,107.32,86.65z M109.72,97.29h-2.27v-8.45h2.27
		V97.29z"/>
	<path class="st0" d="M118.08,97.29c-0.1-0.2-0.18-0.46-0.23-0.76c-0.55,0.61-1.26,0.91-2.13,0.91c-0.83,0-1.51-0.24-2.06-0.72
		c-0.54-0.48-0.82-1.08-0.82-1.81c0-0.9,0.33-1.58,1-2.06c0.66-0.48,1.62-0.72,2.88-0.73h1.04v-0.48c0-0.39-0.1-0.7-0.3-0.94
		s-0.52-0.35-0.95-0.35c-0.38,0-0.68,0.09-0.89,0.27c-0.22,0.18-0.32,0.43-0.32,0.75h-2.26c0-0.49,0.15-0.94,0.45-1.36
		c0.3-0.42,0.73-0.74,1.28-0.98c0.55-0.24,1.17-0.36,1.86-0.36c1.04,0,1.87,0.26,2.48,0.79s0.92,1.26,0.92,2.21v3.66
		c0,0.8,0.12,1.41,0.34,1.82v0.13H118.08z M116.21,95.72c0.33,0,0.64-0.07,0.92-0.22s0.49-0.35,0.62-0.6v-1.45h-0.84
		c-1.13,0-1.73,0.39-1.8,1.17l-0.01,0.13c0,0.28,0.1,0.51,0.3,0.7C115.6,95.63,115.87,95.72,116.21,95.72z"/>
</g>
<g>
	<path class="st0" d="M144.08,88.84l0.07,0.98c0.6-0.75,1.41-1.13,2.43-1.13c0.9,0,1.56,0.26,2,0.79c0.44,0.53,0.66,1.31,0.67,2.36
		v5.46h-2.26v-5.41c0-0.48-0.1-0.83-0.31-1.04c-0.21-0.22-0.55-0.32-1.04-0.32c-0.64,0-1.11,0.27-1.43,0.81v5.96h-2.26v-8.45H144.08
		z"/>
	<path class="st0" d="M157.14,94.96c0-0.28-0.14-0.49-0.41-0.65c-0.27-0.16-0.71-0.3-1.32-0.43c-2.01-0.42-3.02-1.28-3.02-2.56
		c0-0.75,0.31-1.38,0.93-1.88c0.62-0.5,1.44-0.75,2.44-0.75c1.07,0,1.93,0.25,2.57,0.76c0.64,0.51,0.96,1.16,0.96,1.97h-2.26
		c0-0.32-0.1-0.59-0.31-0.8s-0.53-0.32-0.98-0.32c-0.38,0-0.67,0.09-0.88,0.26s-0.31,0.39-0.31,0.66c0,0.25,0.12,0.45,0.36,0.61
		c0.24,0.15,0.64,0.29,1.2,0.4c0.56,0.11,1.04,0.24,1.42,0.38c1.19,0.44,1.79,1.2,1.79,2.27c0,0.77-0.33,1.39-0.99,1.87
		s-1.52,0.71-2.56,0.71c-0.71,0-1.34-0.13-1.89-0.38s-0.98-0.6-1.29-1.04c-0.31-0.44-0.47-0.92-0.47-1.43h2.14
		c0.02,0.4,0.17,0.71,0.45,0.92c0.28,0.21,0.65,0.32,1.11,0.32c0.43,0,0.76-0.08,0.98-0.25S157.14,95.22,157.14,94.96z"/>
	<path class="st0" d="M165.09,86.76v2.08h1.45v1.66h-1.45v4.22c0,0.31,0.06,0.54,0.18,0.67c0.12,0.14,0.35,0.2,0.69,0.2
		c0.25,0,0.47-0.02,0.66-0.05v1.71c-0.44,0.14-0.9,0.2-1.37,0.2c-1.58,0-2.39-0.8-2.42-2.4V90.5h-1.23v-1.66h1.23v-2.08H165.09z"/>
	<path class="st0" d="M169.38,86.65c0-0.34,0.11-0.62,0.34-0.84s0.54-0.33,0.93-0.33c0.39,0,0.69,0.11,0.92,0.33s0.34,0.5,0.34,0.84
		c0,0.34-0.12,0.62-0.35,0.84s-0.54,0.33-0.92,0.33s-0.69-0.11-0.92-0.33S169.38,87,169.38,86.65z M171.77,97.29h-2.27v-8.45h2.27
		V97.29z"/>
	<path class="st0" d="M177.94,86.76v2.08h1.45v1.66h-1.45v4.22c0,0.31,0.06,0.54,0.18,0.67c0.12,0.14,0.35,0.2,0.69,0.2
		c0.25,0,0.47-0.02,0.66-0.05v1.71c-0.44,0.14-0.9,0.2-1.37,0.2c-1.58,0-2.39-0.8-2.42-2.4V90.5h-1.23v-1.66h1.23v-2.08H177.94z"/>
	<path class="st0" d="M187.3,96.43c-0.56,0.68-1.33,1.02-2.31,1.02c-0.91,0-1.6-0.26-2.07-0.78c-0.48-0.52-0.72-1.28-0.73-2.29
		v-5.54h2.26v5.47c0,0.88,0.4,1.32,1.2,1.32c0.77,0,1.29-0.27,1.58-0.8v-5.99h2.27v8.45h-2.12L187.3,96.43z"/>
	<path class="st0" d="M195.5,86.76v2.08h1.45v1.66h-1.45v4.22c0,0.31,0.06,0.54,0.18,0.67c0.12,0.14,0.35,0.2,0.69,0.2
		c0.25,0,0.47-0.02,0.66-0.05v1.71c-0.44,0.14-0.9,0.2-1.37,0.2c-1.58,0-2.39-0.8-2.42-2.4V90.5H192v-1.66h1.23v-2.08H195.5z"/>
	<path class="st0" d="M199.78,86.65c0-0.34,0.11-0.62,0.34-0.84s0.54-0.33,0.93-0.33c0.39,0,0.69,0.11,0.92,0.33s0.34,0.5,0.34,0.84
		c0,0.34-0.12,0.62-0.35,0.84s-0.54,0.33-0.92,0.33s-0.69-0.11-0.92-0.33S199.78,87,199.78,86.65z M202.18,97.29h-2.27v-8.45h2.27
		V97.29z"/>
	<path class="st0" d="M205.29,92.99c0-0.84,0.16-1.59,0.48-2.24s0.79-1.16,1.39-1.52s1.31-0.54,2.11-0.54
		c1.14,0,2.07,0.35,2.79,1.05c0.72,0.7,1.12,1.65,1.21,2.84l0.02,0.58c0,1.3-0.36,2.34-1.09,3.12c-0.72,0.78-1.7,1.18-2.91,1.18
		s-2.19-0.39-2.92-1.17s-1.09-1.84-1.09-3.19V92.99z M207.55,93.15c0,0.8,0.15,1.42,0.45,1.84c0.3,0.43,0.73,0.64,1.3,0.64
		c0.55,0,0.97-0.21,1.28-0.63s0.46-1.09,0.46-2.01c0-0.79-0.15-1.4-0.46-1.83c-0.31-0.43-0.74-0.65-1.3-0.65
		c-0.55,0-0.98,0.22-1.28,0.65C207.7,91.58,207.55,92.25,207.55,93.15z"/>
	<path class="st0" d="M218.37,88.84l0.07,0.98c0.6-0.75,1.41-1.13,2.43-1.13c0.9,0,1.56,0.26,2,0.79c0.44,0.53,0.66,1.31,0.67,2.36
		v5.46h-2.26v-5.41c0-0.48-0.1-0.83-0.31-1.04c-0.21-0.22-0.55-0.32-1.04-0.32c-0.64,0-1.11,0.27-1.43,0.81v5.96h-2.26v-8.45H218.37
		z"/>
</g>
</svg>
