<?xml version="1.0" encoding="utf-8"?>
<!-- Generator: Adobe Illustrator 27.2.0, SVG Export Plug-In . SVG Version: 6.00 Build 0)  -->
<svg version="1.1" id="Layer_1" xmlns="http://www.w3.org/2000/svg" xmlns:xlink="http://www.w3.org/1999/xlink" x="0px" y="0px"
	 viewBox="0 0 252 66.46" style="enable-background:new 0 0 252 66.46;" xml:space="preserve">
<style type="text/css">
	.st0{fill:#1E1E1E;}
	.st1{fill:#E8C45F;}
	.st2{fill:#00444D;}
	.st3{fill:#FFFFFF;}
	.st4{fill:#F9BE03;}
	.st5{fill:#83BAB6;}
	.st6{fill:#639691;}
	.st7{fill:#1B307D;}
	.st8{fill:#C2C2C2;}
	.st9{fill:#058BE8;}
</style>
<path class="st0" d="M0,29.69V47.7c0,0.83,0.67,1.51,1.51,1.51h45.02c1.43,0,2.05-1.8,0.94-2.68L24.8,28.51
	c-0.27-0.21-0.6-0.33-0.94-0.33H1.51C0.67,28.18,0,28.86,0,29.69z"/>
<path class="st0" d="M24.8,24.85L47.46,6.84c1.12-0.89,0.49-2.68-0.94-2.68H1.51C0.67,4.15,0,4.82,0,5.66v18.02
	c0,0.83,0.67,1.51,1.51,1.51h22.36C24.2,25.18,24.53,25.06,24.8,24.85z"/>
<path class="st0" d="M234.17,23.67V5.66c0-0.83-0.67-1.51-1.51-1.51h-45.05c-0.83,0-1.51,0.67-1.51,1.51v18.02
	c0,0.83,0.67,1.51,1.51,1.51h45.05C233.5,25.18,234.17,24.5,234.17,23.67z"/>
<path class="st0" d="M55.32,4.48L28.9,25.5c-0.76,0.6-0.76,1.75,0,2.36l26.43,21.02c0.27,0.21,0.6,0.33,0.94,0.33h19.67
	c0.83,0,1.51-0.67,1.51-1.51V5.66c0-0.83-0.67-1.51-1.51-1.51H56.26C55.92,4.15,55.59,4.27,55.32,4.48z"/>
<path class="st0" d="M186.11,29.69V47.7c0,0.83,0.67,1.51,1.51,1.51h45.05c0.83,0,1.51-0.67,1.51-1.51V29.69
	c0-0.83-0.67-1.51-1.51-1.51h-45.05C186.78,28.18,186.11,28.86,186.11,29.69z"/>
<path class="st0" d="M108.22,37.19L108.22,37.19c0.77,0,1.43,0.59,1.49,1.36c0.43,5.1,3.42,7.65,8.96,7.65l30.59,0
	c4.39,0,8.14-3.37,8.42-7.75c0.43-6.85-2.56-10.27-8.97-10.27l-30.83,0c-5.84,0-10.8-4.49-11.17-10.32
	c-0.58-9.14,3.4-13.71,11.96-13.71H81.68c-0.83,0-1.51,0.67-1.51,1.51V47.7c0,0.83,0.67,1.51,1.51,1.51h36.99
	c-7.45,0-11.43-3.46-11.96-10.38C106.65,37.95,107.34,37.19,108.22,37.19z"/>
<path class="st0" d="M148.71,4.15c7.45,0,11.43,3.46,11.96,10.38c0.07,0.88-0.63,1.63-1.51,1.63l0,0c-0.77,0-1.43-0.59-1.49-1.36
	c-0.43-5.1-3.42-7.65-8.96-7.65l-30.59,0c-4.39,0-8.14,3.37-8.42,7.75c-0.43,6.85,2.56,10.27,8.97,10.27l30.83,0
	c5.84,0,10.8,4.49,11.17,10.32c0.58,9.14-3.4,13.71-11.96,13.71h32.89c0.83,0,1.51-0.67,1.51-1.51V5.66c0-0.83-0.67-1.51-1.51-1.51
	H148.71z"/>
<path class="st1" d="M139.65,0.32h1.21c0.43,0,0.78,0.53,0.78,1.19v63.66c0,0.66-0.35,1.19-0.78,1.19h-1.21
	c-0.43,0-0.78-0.53-0.78-1.19V1.51C138.87,0.85,139.22,0.32,139.65,0.32z"/>
<path class="st1" d="M126.06,0.32h1.21c0.43,0,0.78,0.53,0.78,1.19v63.66c0,0.66-0.35,1.19-0.78,1.19h-1.21
	c-0.43,0-0.78-0.53-0.78-1.19V1.51C125.28,0.85,125.63,0.32,126.06,0.32z"/>
<g>
	<path class="st0" d="M38.4,59.94h-5.77v5.96h-3V51.32h9.49v2.43h-6.49v3.76h5.77V59.94z"/>
	<path class="st0" d="M42.7,52.26c0-0.43,0.15-0.79,0.44-1.07c0.29-0.28,0.69-0.42,1.19-0.42c0.49,0,0.89,0.14,1.18,0.42
		c0.29,0.28,0.44,0.64,0.44,1.07c0,0.44-0.15,0.8-0.45,1.08c-0.3,0.28-0.69,0.42-1.18,0.42s-0.88-0.14-1.18-0.42
		C42.85,53.06,42.7,52.7,42.7,52.26z M45.78,65.89h-2.9V55.06h2.9V65.89z"/>
	<path class="st0" d="M52.88,55.06l0.09,1.25c0.77-0.97,1.81-1.45,3.11-1.45c1.15,0,2,0.34,2.56,1.01c0.56,0.67,0.85,1.68,0.86,3.02
		v7h-2.89v-6.93c0-0.61-0.13-1.06-0.4-1.34c-0.27-0.28-0.71-0.42-1.33-0.42c-0.81,0-1.43,0.35-1.83,1.04v7.64h-2.89V55.06H52.88z"/>
	<path class="st0" d="M70.03,65.89c-0.13-0.26-0.23-0.58-0.29-0.97c-0.7,0.78-1.61,1.17-2.73,1.17c-1.06,0-1.94-0.31-2.64-0.92
		c-0.7-0.61-1.05-1.39-1.05-2.32c0-1.15,0.43-2.03,1.28-2.64c0.85-0.61,2.08-0.92,3.69-0.93h1.33v-0.62c0-0.5-0.13-0.9-0.39-1.2
		c-0.26-0.3-0.66-0.45-1.22-0.45c-0.49,0-0.87,0.12-1.15,0.35c-0.28,0.23-0.42,0.55-0.42,0.96h-2.89c0-0.63,0.19-1.21,0.58-1.74
		c0.39-0.53,0.93-0.95,1.64-1.26c0.71-0.3,1.5-0.46,2.38-0.46c1.34,0,2.39,0.34,3.18,1.01s1.18,1.61,1.18,2.83v4.7
		c0.01,1.03,0.15,1.81,0.43,2.33v0.17H70.03z M67.63,63.88c0.43,0,0.82-0.1,1.18-0.29c0.36-0.19,0.63-0.45,0.8-0.77v-1.86h-1.08
		c-1.45,0-2.22,0.5-2.31,1.5l-0.01,0.17c0,0.36,0.13,0.66,0.38,0.89C66.84,63.77,67.19,63.88,67.63,63.88z"/>
	<path class="st0" d="M79.46,55.06l0.09,1.25c0.77-0.97,1.81-1.45,3.11-1.45c1.15,0,2,0.34,2.56,1.01c0.56,0.67,0.85,1.68,0.86,3.02
		v7h-2.89v-6.93c0-0.61-0.13-1.06-0.4-1.34c-0.27-0.28-0.71-0.42-1.33-0.42c-0.81,0-1.43,0.35-1.83,1.04v7.64h-2.89V55.06H79.46z"/>
	<path class="st0" d="M94.83,63.76c0.53,0,0.97-0.15,1.3-0.44c0.33-0.29,0.51-0.68,0.52-1.17h2.71c-0.01,0.73-0.21,1.41-0.6,2.02
		c-0.39,0.61-0.93,1.09-1.62,1.42c-0.68,0.34-1.44,0.51-2.27,0.51c-1.55,0-2.77-0.49-3.66-1.48c-0.89-0.98-1.34-2.34-1.34-4.08
		v-0.19c0-1.67,0.44-3,1.33-4c0.89-0.99,2.11-1.49,3.65-1.49c1.36,0,2.44,0.39,3.26,1.16s1.23,1.8,1.25,3.08h-2.71
		c-0.01-0.56-0.19-1.02-0.52-1.37c-0.33-0.35-0.77-0.53-1.32-0.53c-0.67,0-1.18,0.25-1.53,0.74c-0.34,0.49-0.52,1.29-0.52,2.39v0.3
		c0,1.12,0.17,1.92,0.51,2.41C93.62,63.52,94.14,63.76,94.83,63.76z"/>
	<path class="st0" d="M103.05,52.26c0-0.43,0.15-0.79,0.44-1.07c0.29-0.28,0.69-0.42,1.19-0.42c0.49,0,0.89,0.14,1.18,0.42
		c0.29,0.28,0.44,0.64,0.44,1.07c0,0.44-0.15,0.8-0.45,1.08c-0.3,0.28-0.69,0.42-1.18,0.42c-0.49,0-0.88-0.14-1.18-0.42
		C103.2,53.06,103.05,52.7,103.05,52.26z M106.13,65.89h-2.9V55.06h2.9V65.89z"/>
	<path class="st0" d="M116.84,65.89c-0.13-0.26-0.23-0.58-0.29-0.97c-0.7,0.78-1.61,1.17-2.73,1.17c-1.06,0-1.94-0.31-2.64-0.92
		c-0.7-0.61-1.05-1.39-1.05-2.32c0-1.15,0.43-2.03,1.28-2.64c0.85-0.61,2.08-0.92,3.69-0.93h1.33v-0.62c0-0.5-0.13-0.9-0.39-1.2
		S115.38,57,114.83,57c-0.49,0-0.87,0.12-1.15,0.35c-0.28,0.23-0.42,0.55-0.42,0.96h-2.89c0-0.63,0.19-1.21,0.58-1.74
		c0.39-0.53,0.93-0.95,1.64-1.26c0.71-0.3,1.5-0.46,2.38-0.46c1.34,0,2.39,0.34,3.18,1.01c0.78,0.67,1.18,1.61,1.18,2.83v4.7
		c0.01,1.03,0.15,1.81,0.43,2.33v0.17H116.84z M114.44,63.88c0.43,0,0.82-0.1,1.18-0.29c0.36-0.19,0.63-0.45,0.8-0.77v-1.86h-1.08
		c-1.45,0-2.22,0.5-2.31,1.5l-0.01,0.17c0,0.36,0.13,0.66,0.38,0.89C113.66,63.77,114,63.88,114.44,63.88z"/>
</g>
<g>
	<path class="st0" d="M150.16,55.06l0.09,1.25c0.77-0.97,1.81-1.45,3.11-1.45c1.15,0,2,0.34,2.56,1.01
		c0.56,0.67,0.85,1.68,0.86,3.02v7h-2.89v-6.93c0-0.61-0.13-1.06-0.4-1.34c-0.27-0.28-0.71-0.42-1.33-0.42
		c-0.81,0-1.43,0.35-1.83,1.04v7.64h-2.89V55.06H150.16z"/>
	<path class="st0" d="M166.9,62.9c0-0.35-0.18-0.63-0.53-0.84c-0.35-0.2-0.91-0.39-1.69-0.55c-2.58-0.54-3.86-1.64-3.86-3.28
		c0-0.96,0.4-1.76,1.2-2.41c0.8-0.64,1.84-0.97,3.13-0.97c1.38,0,2.47,0.32,3.3,0.97c0.82,0.65,1.24,1.49,1.24,2.52h-2.89
		c0-0.41-0.13-0.76-0.4-1.03c-0.27-0.27-0.68-0.41-1.25-0.41c-0.49,0-0.86,0.11-1.13,0.33s-0.4,0.5-0.4,0.84
		c0,0.32,0.15,0.58,0.46,0.78c0.3,0.2,0.82,0.37,1.54,0.51c0.72,0.14,1.33,0.31,1.82,0.49c1.53,0.56,2.29,1.53,2.29,2.91
		c0,0.99-0.42,1.79-1.27,2.4c-0.85,0.61-1.94,0.92-3.28,0.92c-0.91,0-1.71-0.16-2.42-0.49c-0.7-0.32-1.26-0.77-1.66-1.33
		c-0.4-0.56-0.6-1.17-0.6-1.83h2.74c0.03,0.51,0.22,0.91,0.57,1.18c0.35,0.27,0.83,0.41,1.42,0.41c0.55,0,0.97-0.11,1.26-0.32
		S166.9,63.24,166.9,62.9z"/>
	<path class="st0" d="M177.09,52.4v2.66h1.85v2.12h-1.85v5.41c0,0.4,0.08,0.69,0.23,0.86c0.15,0.17,0.45,0.26,0.88,0.26
		c0.32,0,0.6-0.02,0.85-0.07v2.19c-0.57,0.17-1.15,0.26-1.75,0.26c-2.03,0-3.06-1.02-3.1-3.07v-5.84h-1.58v-2.12h1.58V52.4H177.09z"
		/>
	<path class="st0" d="M182.58,52.26c0-0.43,0.15-0.79,0.44-1.07c0.29-0.28,0.69-0.42,1.19-0.42c0.49,0,0.89,0.14,1.18,0.42
		c0.29,0.28,0.44,0.64,0.44,1.07c0,0.44-0.15,0.8-0.45,1.08c-0.3,0.28-0.69,0.42-1.18,0.42c-0.49,0-0.88-0.14-1.18-0.42
		C182.73,53.06,182.58,52.7,182.58,52.26z M185.66,65.89h-2.9V55.06h2.9V65.89z"/>
	<path class="st0" d="M193.55,52.4v2.66h1.85v2.12h-1.85v5.41c0,0.4,0.08,0.69,0.23,0.86c0.15,0.17,0.45,0.26,0.88,0.26
		c0.32,0,0.6-0.02,0.85-0.07v2.19c-0.57,0.17-1.15,0.26-1.75,0.26c-2.03,0-3.06-1.02-3.1-3.07v-5.84h-1.58v-2.12h1.58V52.4H193.55z"
		/>
	<path class="st0" d="M205.56,64.79c-0.71,0.87-1.7,1.3-2.96,1.3c-1.16,0-2.05-0.33-2.66-1c-0.61-0.67-0.92-1.65-0.94-2.93v-7.1
		h2.89v7.01c0,1.13,0.51,1.69,1.54,1.69c0.98,0,1.66-0.34,2.02-1.02v-7.68h2.9v10.83h-2.72L205.56,64.79z"/>
	<path class="st0" d="M216.06,52.4v2.66h1.85v2.12h-1.85v5.41c0,0.4,0.08,0.69,0.23,0.86c0.15,0.17,0.45,0.26,0.88,0.26
		c0.32,0,0.6-0.02,0.85-0.07v2.19c-0.57,0.17-1.15,0.26-1.75,0.26c-2.03,0-3.06-1.02-3.1-3.07v-5.84h-1.58v-2.12h1.58V52.4H216.06z"
		/>
	<path class="st0" d="M221.55,52.26c0-0.43,0.15-0.79,0.44-1.07c0.29-0.28,0.69-0.42,1.19-0.42c0.49,0,0.89,0.14,1.18,0.42
		c0.29,0.28,0.44,0.64,0.44,1.07c0,0.44-0.15,0.8-0.45,1.08c-0.3,0.28-0.69,0.42-1.18,0.42s-0.88-0.14-1.18-0.42
		C221.7,53.06,221.55,52.7,221.55,52.26z M224.63,65.89h-2.9V55.06h2.9V65.89z"/>
	<path class="st0" d="M228.61,60.38c0-1.07,0.21-2.03,0.62-2.87c0.41-0.84,1.01-1.49,1.79-1.95s1.68-0.69,2.71-0.69
		c1.46,0,2.65,0.45,3.58,1.34c0.92,0.89,1.44,2.11,1.55,3.64l0.02,0.74c0,1.66-0.46,3-1.39,4c-0.93,1.01-2.17,1.51-3.73,1.51
		s-2.81-0.5-3.74-1.5c-0.93-1-1.4-2.36-1.4-4.09V60.38z M231.5,60.58c0,1.03,0.19,1.82,0.58,2.36c0.39,0.55,0.94,0.82,1.66,0.82
		c0.7,0,1.25-0.27,1.64-0.81c0.39-0.54,0.59-1.4,0.59-2.58c0-1.01-0.2-1.79-0.59-2.35c-0.39-0.55-0.95-0.83-1.66-0.83
		c-0.71,0-1.26,0.28-1.64,0.83C231.7,58.57,231.5,59.43,231.5,60.58z"/>
	<path class="st0" d="M245.37,55.06l0.09,1.25c0.77-0.97,1.81-1.45,3.11-1.45c1.15,0,2,0.34,2.56,1.01
		c0.56,0.67,0.85,1.68,0.86,3.02v7h-2.89v-6.93c0-0.61-0.13-1.06-0.4-1.34c-0.27-0.28-0.71-0.42-1.33-0.42
		c-0.81,0-1.43,0.35-1.83,1.04v7.64h-2.89V55.06H245.37z"/>
</g>
</svg>
